<svg xmlns="http://www.w3.org/2000/svg" viewBox="0 0 500 361.16"><defs><style>.cls-1{fill:#f2f2f2;}.cls-2{fill:#bfbfbf;}.cls-3{fill:#4d4d4d;}.cls-4{fill:none;stroke:#b3b3b3;stroke-linecap:round;stroke-linejoin:round;}</style></defs><g id="Layer_4" data-name="Layer 4"><rect class="cls-1" x="131" y="1" width="238" height="359.16" rx="15"/><path class="cls-2" d="M354,2a14,14,0,0,1,14,14V345.16a14,14,0,0,1-14,14H146a14,14,0,0,1-14-14V16A14,14,0,0,1,146,2H354m0-2H146a16,16,0,0,0-16,16V345.16a16,16,0,0,0,16,16H354a16,16,0,0,0,16-16V16A16,16,0,0,0,354,0Z"/><path class="cls-3" d="M169.7,32V22h1V32Z"/><path class="cls-3" d="M172.82,32V24.48h.93v1.86h.11V32Zm5.47,0V28.18a5.3,5.3,0,0,0-.12-1.16,2.83,2.83,0,0,0-.38-.92,1.81,1.81,0,0,0-.68-.61,2.12,2.12,0,0,0-1-.22,2.19,2.19,0,0,0-1,.19,1.88,1.88,0,0,0-.7.54,2.32,2.32,0,0,0-.43.86,4.06,4.06,0,0,0-.15,1.15l-.73-.16a4.28,4.28,0,0,1,.41-2,2.81,2.81,0,0,1,1.12-1.19,3.23,3.23,0,0,1,1.63-.41,3.09,3.09,0,0,1,1.19.21,2.49,2.49,0,0,1,.86.57,2.83,2.83,0,0,1,.57.81,4,4,0,0,1,.32,1,5.86,5.86,0,0,1,.09,1V32Z"/><path class="cls-3" d="M180.59,25.36v-.88H185v.88Zm1.3,6.68V23.92a3.69,3.69,0,0,1,0-.58,2,2,0,0,1,.13-.55,1.33,1.33,0,0,1,.3-.49,1.54,1.54,0,0,1,.51-.36,1.85,1.85,0,0,1,.57-.15,3.86,3.86,0,0,1,.58,0h1v.87h-.9a1.18,1.18,0,0,0-.88.29,1.23,1.23,0,0,0-.29.9V32Z"/><path class="cls-3" d="M186.11,32V24.48H187V26.3l-.18-.24a2.46,2.46,0,0,1,.33-.62,1.94,1.94,0,0,1,.44-.46,2,2,0,0,1,.69-.4,3.08,3.08,0,0,1,.79-.16,2.17,2.17,0,0,1,.73.06v1a2.48,2.48,0,0,0-.91-.05,1.61,1.61,0,0,0-.9.39,1.92,1.92,0,0,0-.57.7,3.33,3.33,0,0,0-.25.87,7.07,7.07,0,0,0-.06.91V32Z"/><path class="cls-3" d="M193,32.25a2.94,2.94,0,0,1-1.43-.31,2,2,0,0,1-.87-.82,2.24,2.24,0,0,1-.29-1.11A2.15,2.15,0,0,1,190.7,29a2.23,2.23,0,0,1,.68-.72,3.36,3.36,0,0,1,1-.43c.38-.09.81-.17,1.27-.25l1.37-.19,1.17-.15-.37.22a2.44,2.44,0,0,0-.43-1.66,2,2,0,0,0-1.58-.54,2.35,2.35,0,0,0-1.31.35,1.91,1.91,0,0,0-.76,1.11l-1-.29a2.66,2.66,0,0,1,1-1.58,3.49,3.49,0,0,1,2-.56,3.66,3.66,0,0,1,1.76.39,2.16,2.16,0,0,1,1,1.12,2.77,2.77,0,0,1,.18.74,7.38,7.38,0,0,1,0,.82V32h-.92v-1.9l.27.11a3,3,0,0,1-1.2,1.49A3.57,3.57,0,0,1,193,32.25Zm.12-.89a2.92,2.92,0,0,0,1.26-.26,2.15,2.15,0,0,0,.86-.71,2.32,2.32,0,0,0,.43-1,3.32,3.32,0,0,0,.09-.8c0-.29,0-.51,0-.65l.39.2-1.14.14-1.2.16a9.14,9.14,0,0,0-1.07.22,3,3,0,0,0-.62.25,1.48,1.48,0,0,0-.49.44,1.14,1.14,0,0,0-.2.68,1.3,1.3,0,0,0,.7,1.15A2.1,2.1,0,0,0,193.16,31.36Z"/><path class="cls-3" d="M201.47,32.24a3.86,3.86,0,0,1-2.18-.57,2.37,2.37,0,0,1-1.06-1.6l1.05-.17a1.66,1.66,0,0,0,.77,1,2.65,2.65,0,0,0,1.48.39,2.22,2.22,0,0,0,1.36-.37,1.14,1.14,0,0,0,.49-1,1,1,0,0,0-.15-.57,1.47,1.47,0,0,0-.64-.41c-.33-.13-.81-.27-1.45-.45a9.14,9.14,0,0,1-1.61-.56,2,2,0,0,1-.82-.64,1.64,1.64,0,0,1-.25-.9,1.78,1.78,0,0,1,.37-1.13,2.32,2.32,0,0,1,1-.76,3.81,3.81,0,0,1,1.49-.27,3.9,3.9,0,0,1,1.53.28,2.66,2.66,0,0,1,1.09.77,2.12,2.12,0,0,1,.49,1.16l-1.05.18a1.53,1.53,0,0,0-.66-1.05,2.47,2.47,0,0,0-1.41-.4,2.28,2.28,0,0,0-1.31.3,1,1,0,0,0-.5.87.76.76,0,0,0,.18.51,1.63,1.63,0,0,0,.66.4,11.2,11.2,0,0,0,1.37.42,8.11,8.11,0,0,1,1.64.56,1.92,1.92,0,0,1,.84.69,1.82,1.82,0,0,1,.26,1,2,2,0,0,1-.8,1.68A3.5,3.5,0,0,1,201.47,32.24Z"/><path class="cls-3" d="M205.16,25.36v-.88h5v.88Zm5,6.68a5.46,5.46,0,0,1-1.26.11,2.74,2.74,0,0,1-1.1-.27,1.61,1.61,0,0,1-.74-.74,2.06,2.06,0,0,1-.22-.85c0-.29,0-.62,0-1V22.38h1v6.88c0,.32,0,.58,0,.8a1.4,1.4,0,0,0,.14.56,1.07,1.07,0,0,0,.81.56,4.25,4.25,0,0,0,1.36,0Z"/><path class="cls-3" d="M211.61,32V24.48h.92V26.3l-.18-.24a3.34,3.34,0,0,1,.33-.62,2.16,2.16,0,0,1,.44-.46,2,2,0,0,1,.69-.4,3.08,3.08,0,0,1,.79-.16,2.17,2.17,0,0,1,.73.06v1a2.48,2.48,0,0,0-.91-.05,1.64,1.64,0,0,0-.9.39,1.92,1.92,0,0,0-.57.7,3.33,3.33,0,0,0-.25.87,7.07,7.07,0,0,0-.06.91V32Z"/><path class="cls-3" d="M219.55,32.23a3.09,3.09,0,0,1-1.19-.21,2.59,2.59,0,0,1-.86-.57,2.83,2.83,0,0,1-.57-.81,4,4,0,0,1-.32-1,5.86,5.86,0,0,1-.09-1V24.48h1v3.86a5.2,5.2,0,0,0,.12,1.15,2.79,2.79,0,0,0,.38.93,1.81,1.81,0,0,0,.68.61,2.12,2.12,0,0,0,1,.22,2.27,2.27,0,0,0,1-.19,2.06,2.06,0,0,0,.7-.54,2.48,2.48,0,0,0,.43-.86,4.47,4.47,0,0,0,.14-1.15l.73.16a4.28,4.28,0,0,1-.4,2,2.93,2.93,0,0,1-1.12,1.19A3.3,3.3,0,0,1,219.55,32.23Zm2.54-.19V30.18H222v-5.7h1V32Z"/><path class="cls-3" d="M228.11,32.25a3.47,3.47,0,0,1-1.93-.51,3.19,3.19,0,0,1-1.2-1.41,5,5,0,0,1-.43-2.07,5.06,5.06,0,0,1,.44-2.09,3.19,3.19,0,0,1,1.21-1.4,3.5,3.5,0,0,1,1.91-.5,3.56,3.56,0,0,1,2,.56,2.8,2.8,0,0,1,1.17,1.53l-1,.33a2.18,2.18,0,0,0-.84-1.06,2.39,2.39,0,0,0-1.32-.37,2.3,2.3,0,0,0-1.38.38,2.17,2.17,0,0,0-.81,1.06,4.38,4.38,0,0,0-.28,1.56,3.62,3.62,0,0,0,.63,2.18,2.15,2.15,0,0,0,1.84.82,2.31,2.31,0,0,0,1.31-.35,2.18,2.18,0,0,0,.82-1l1,.31a3.26,3.26,0,0,1-1.23,1.53A3.5,3.5,0,0,1,228.11,32.25Z"/><path class="cls-3" d="M231.88,25.36v-.88h5v.88Zm5,6.68a5.46,5.46,0,0,1-1.26.11,2.83,2.83,0,0,1-1.11-.27,1.59,1.59,0,0,1-.73-.74,2.06,2.06,0,0,1-.22-.85c0-.29,0-.62,0-1V22.38h1v6.88c0,.32,0,.58,0,.8a1.4,1.4,0,0,0,.14.56,1.07,1.07,0,0,0,.81.56,4.25,4.25,0,0,0,1.36,0Z"/><path class="cls-3" d="M241.22,32.23A3.12,3.12,0,0,1,240,32a2.59,2.59,0,0,1-.86-.57,3.29,3.29,0,0,1-.57-.81,4,4,0,0,1-.31-1,5,5,0,0,1-.1-1V24.48h1v3.86a5.2,5.2,0,0,0,.12,1.15,2.61,2.61,0,0,0,.39.93,1.78,1.78,0,0,0,.67.61,2.14,2.14,0,0,0,1,.22,2.25,2.25,0,0,0,1-.19,2.06,2.06,0,0,0,.7-.54,2.48,2.48,0,0,0,.43-.86,4.07,4.07,0,0,0,.14-1.15l.73.16a4.28,4.28,0,0,1-.4,2,2.87,2.87,0,0,1-1.12,1.19A3.27,3.27,0,0,1,241.22,32.23Zm2.54-.19V30.18h-.11v-5.7h1V32Z"/><path class="cls-3" d="M246.64,32V24.48h.93V26.3l-.18-.24a2.8,2.8,0,0,1,.32-.62,2.19,2.19,0,0,1,.45-.46,1.86,1.86,0,0,1,.68-.4,3.17,3.17,0,0,1,.79-.16,2.14,2.14,0,0,1,.73.06v1a2.42,2.42,0,0,0-.9-.05,1.64,1.64,0,0,0-.91.39,1.8,1.8,0,0,0-.56.7,3,3,0,0,0-.25.87,5.67,5.67,0,0,0-.07.91V32Z"/><path class="cls-3" d="M254.75,32.25a3.55,3.55,0,0,1-1.91-.49,3.37,3.37,0,0,1-1.26-1.38,4.57,4.57,0,0,1-.45-2.09,4.89,4.89,0,0,1,.44-2.14,3.36,3.36,0,0,1,1.24-1.39,3.56,3.56,0,0,1,1.9-.49,3.47,3.47,0,0,1,1.91.51,3.22,3.22,0,0,1,1.2,1.48,5.54,5.54,0,0,1,.37,2.29h-1.05v-.37A3.56,3.56,0,0,0,256.5,26a2.12,2.12,0,0,0-1.76-.75,2.27,2.27,0,0,0-1.87.8,3.45,3.45,0,0,0-.65,2.25,3.43,3.43,0,0,0,.65,2.22,2.25,2.25,0,0,0,1.84.78,2.66,2.66,0,0,0,1.42-.37,2.58,2.58,0,0,0,.95-1.08l1,.37a3.41,3.41,0,0,1-1.32,1.53A3.67,3.67,0,0,1,254.75,32.25Zm-2.89-3.7v-.86h5.77v.86Z"/><path class="cls-3" d="M262.53,32V22h4.23a2.35,2.35,0,0,1,.37.05,2.75,2.75,0,0,1,1.34.55,2.64,2.64,0,0,1,.84,1.08,3.7,3.7,0,0,1,.28,1.44,3.32,3.32,0,0,1-.6,2,2.68,2.68,0,0,1-1.72,1.06l-.36.08h-3.35V32Zm1-4.81h3.13l.33,0a1.76,1.76,0,0,0,.85-.43,2,2,0,0,0,.5-.75,2.51,2.51,0,0,0,.16-.9,2.57,2.57,0,0,0-.16-.91,2,2,0,0,0-.5-.75A1.76,1.76,0,0,0,267,23a1.86,1.86,0,0,0-.33,0h-3.13ZM268.64,32l-2-4.1,1-.38L269.82,32Z"/><path class="cls-3" d="M274.56,32.25a3.55,3.55,0,0,1-1.91-.49,3.37,3.37,0,0,1-1.26-1.38,4.57,4.57,0,0,1-.45-2.09,4.89,4.89,0,0,1,.44-2.14,3.36,3.36,0,0,1,1.24-1.39,3.56,3.56,0,0,1,1.9-.49,3.47,3.47,0,0,1,1.91.51,3.28,3.28,0,0,1,1.2,1.48,5.54,5.54,0,0,1,.37,2.29H277v-.37a3.56,3.56,0,0,0-.64-2.22,2.12,2.12,0,0,0-1.76-.75,2.27,2.27,0,0,0-1.87.8,3.45,3.45,0,0,0-.65,2.25,3.43,3.43,0,0,0,.65,2.22,2.25,2.25,0,0,0,1.84.78,2.66,2.66,0,0,0,1.42-.37,2.58,2.58,0,0,0,.95-1.08l1,.37a3.41,3.41,0,0,1-1.32,1.53A3.67,3.67,0,0,1,274.56,32.25Zm-2.89-3.7v-.86h5.77v.86Z"/><path class="cls-3" d="M279.33,35.4V24.48h.92v5.69h.11V35.4Zm3.4-3.15a2.93,2.93,0,0,1-1.77-.53,3.28,3.28,0,0,1-1.09-1.43,5.33,5.33,0,0,1-.37-2,5.26,5.26,0,0,1,.38-2,3.15,3.15,0,0,1,1.1-1.42,3,3,0,0,1,1.79-.52,3,3,0,0,1,1.78.52,3.53,3.53,0,0,1,1.14,1.43,5.1,5.1,0,0,1,.39,2,4.92,4.92,0,0,1-.4,2,3.33,3.33,0,0,1-1.15,1.43A3.06,3.06,0,0,1,282.73,32.25Zm-.11-1a2.09,2.09,0,0,0,1.32-.4,2.41,2.41,0,0,0,.79-1.09,4.72,4.72,0,0,0,0-3.09,2.36,2.36,0,0,0-.79-1.08,2.13,2.13,0,0,0-1.34-.4,2.18,2.18,0,0,0-1.31.38,2.32,2.32,0,0,0-.78,1.07,4.87,4.87,0,0,0,0,3.14,2.3,2.3,0,0,0,.78,1.08A2.18,2.18,0,0,0,282.62,31.29Z"/><path class="cls-3" d="M290.78,32.25a3.54,3.54,0,0,1-1.93-.51,3.29,3.29,0,0,1-1.22-1.41,4.78,4.78,0,0,1-.43-2.08,4.68,4.68,0,0,1,.44-2.08,3.23,3.23,0,0,1,1.23-1.4,3.55,3.55,0,0,1,1.91-.5,3.52,3.52,0,0,1,1.93.51,3.22,3.22,0,0,1,1.23,1.4,5.36,5.36,0,0,1,0,4.16,3.34,3.34,0,0,1-1.24,1.41A3.59,3.59,0,0,1,290.78,32.25Zm0-1a2.18,2.18,0,0,0,1.87-.83,3.61,3.61,0,0,0,.62-2.18,3.53,3.53,0,0,0-.62-2.18,2.21,2.21,0,0,0-1.87-.81,2.36,2.36,0,0,0-1.4.38,2.31,2.31,0,0,0-.82,1.06,4.16,4.16,0,0,0-.27,1.55,3.52,3.52,0,0,0,.63,2.19A2.19,2.19,0,0,0,290.78,31.26Z"/><path class="cls-3" d="M298.65,32.24a3.86,3.86,0,0,1-2.18-.57,2.37,2.37,0,0,1-1.06-1.6l1-.17a1.66,1.66,0,0,0,.77,1,2.65,2.65,0,0,0,1.48.39,2.22,2.22,0,0,0,1.36-.37,1.14,1.14,0,0,0,.49-1,1,1,0,0,0-.15-.57,1.47,1.47,0,0,0-.64-.41c-.33-.13-.81-.27-1.45-.45a9.14,9.14,0,0,1-1.61-.56,2,2,0,0,1-.82-.64,1.64,1.64,0,0,1-.25-.9A1.78,1.78,0,0,1,296,25.3a2.32,2.32,0,0,1,1-.76,3.78,3.78,0,0,1,1.49-.27,3.9,3.9,0,0,1,1.53.28,2.66,2.66,0,0,1,1.09.77,2.12,2.12,0,0,1,.49,1.16l-1.05.18a1.53,1.53,0,0,0-.66-1.05,2.47,2.47,0,0,0-1.41-.4,2.28,2.28,0,0,0-1.31.3,1,1,0,0,0-.5.87.76.76,0,0,0,.18.51,1.63,1.63,0,0,0,.66.4,11.2,11.2,0,0,0,1.37.42,8.11,8.11,0,0,1,1.64.56,1.92,1.92,0,0,1,.84.69,1.82,1.82,0,0,1,.26,1,2,2,0,0,1-.8,1.68A3.5,3.5,0,0,1,298.65,32.24Z"/><path class="cls-3" d="M303.32,23V21.89h1V23Zm0,9V24.48h1V32Z"/><path class="cls-3" d="M305.61,25.36v-.88h5v.88Zm5,6.68a5.46,5.46,0,0,1-1.26.11,2.83,2.83,0,0,1-1.11-.27,1.59,1.59,0,0,1-.73-.74,2.06,2.06,0,0,1-.22-.85c0-.29,0-.62,0-1V22.38h1v6.88c0,.32,0,.58,0,.8a1.4,1.4,0,0,0,.14.56,1.07,1.07,0,0,0,.81.56,4.25,4.25,0,0,0,1.36,0Z"/><path class="cls-3" d="M314.94,32.25a3.49,3.49,0,0,1-1.93-.51,3.29,3.29,0,0,1-1.22-1.41,4.78,4.78,0,0,1-.43-2.08,4.68,4.68,0,0,1,.43-2.08,3.25,3.25,0,0,1,1.24-1.4,3.55,3.55,0,0,1,1.91-.5,3.52,3.52,0,0,1,1.93.51,3.35,3.35,0,0,1,1.23,1.4,4.84,4.84,0,0,1,.42,2.07,4.73,4.73,0,0,1-.43,2.09,3.25,3.25,0,0,1-1.23,1.41A3.61,3.61,0,0,1,314.94,32.25Zm0-1a2.19,2.19,0,0,0,1.87-.83,3.61,3.61,0,0,0,.62-2.18,3.53,3.53,0,0,0-.62-2.18,2.21,2.21,0,0,0-1.87-.81,2.34,2.34,0,0,0-1.4.38,2.25,2.25,0,0,0-.82,1.06,4.16,4.16,0,0,0-.27,1.55,3.52,3.52,0,0,0,.63,2.19A2.19,2.19,0,0,0,314.94,31.26Z"/><path class="cls-3" d="M320.06,32V24.48H321V26.3l-.18-.24a2.46,2.46,0,0,1,.33-.62,2.16,2.16,0,0,1,.44-.46,2,2,0,0,1,.69-.4,3.08,3.08,0,0,1,.79-.16,2.17,2.17,0,0,1,.73.06v1a2.48,2.48,0,0,0-.91-.05,1.61,1.61,0,0,0-.9.39,1.92,1.92,0,0,0-.57.7,3.33,3.33,0,0,0-.25.87,7.07,7.07,0,0,0-.06.91V32Z"/><path class="cls-3" d="M326.09,35.4l1.47-4,0,1.18-3.31-8.13h1.09l2.71,6.8h-.44l2.5-6.8h1.05L327.12,35.4Z"/><path class="cls-4" d="M172.58,37.61v290a4,4,0,0,0,4,4h0"/><line class="cls-4" x1="172.58" y1="255.12" x2="176.58" y2="255.12"/><line class="cls-4" x1="172.58" y1="47.41" x2="176.58" y2="47.41"/><path class="cls-3" d="M179.55,55V44.09h.93v5.69h.11V55ZM183,51.86a2.93,2.93,0,0,1-1.77-.53,3.28,3.28,0,0,1-1.09-1.43,5.33,5.33,0,0,1-.37-2,5.26,5.26,0,0,1,.37-2,3.16,3.16,0,0,1,1.11-1.42,3,3,0,0,1,1.79-.52,3,3,0,0,1,1.78.52,3.36,3.36,0,0,1,1.13,1.43,5.38,5.38,0,0,1,0,4.07,3.4,3.4,0,0,1-1.15,1.43A3.06,3.06,0,0,1,183,51.86Zm-.11-1a2.09,2.09,0,0,0,1.32-.4,2.33,2.33,0,0,0,.78-1.09,4.2,4.2,0,0,0,.27-1.55,4.4,4.4,0,0,0-.26-1.54,2.44,2.44,0,0,0-.79-1.08,2.13,2.13,0,0,0-1.34-.4,2.16,2.16,0,0,0-1.31.38,2.32,2.32,0,0,0-.78,1.07,4.87,4.87,0,0,0,0,3.14,2.3,2.3,0,0,0,.78,1.08A2.16,2.16,0,0,0,182.85,50.9Z"/><path class="cls-3" d="M188,51.65V41.36h1V51.65Z"/><path class="cls-3" d="M193.28,51.86a2.94,2.94,0,0,1-1.43-.31,2.09,2.09,0,0,1-.87-.82,2.23,2.23,0,0,1-.28-1.11,2,2,0,0,1,.25-1,2,2,0,0,1,.67-.72,3.36,3.36,0,0,1,1-.43c.38-.09.81-.17,1.27-.25l1.37-.19,1.17-.15-.36.22a2.44,2.44,0,0,0-.44-1.66,2,2,0,0,0-1.58-.54,2.35,2.35,0,0,0-1.31.35,1.91,1.91,0,0,0-.76,1.11L191,46A2.68,2.68,0,0,1,192,44.44a3.43,3.43,0,0,1,2-.56,3.66,3.66,0,0,1,1.76.39,2.16,2.16,0,0,1,1,1.12,2.77,2.77,0,0,1,.18.74,7.38,7.38,0,0,1,0,.82v4.7h-.91v-1.9l.26.11a3,3,0,0,1-1.19,1.49A3.59,3.59,0,0,1,193.28,51.86Zm.12-.89a2.92,2.92,0,0,0,1.26-.26,2.26,2.26,0,0,0,.87-.71,2.31,2.31,0,0,0,.42-1,3.89,3.89,0,0,0,.1-.8v-.65l.39.2-1.13.14L194.1,48a8.55,8.55,0,0,0-1.06.22,2.85,2.85,0,0,0-.63.25,1.48,1.48,0,0,0-.49.44,1.14,1.14,0,0,0-.19.68,1.35,1.35,0,0,0,.16.64,1.37,1.37,0,0,0,.53.51A2.1,2.1,0,0,0,193.4,51Z"/><path class="cls-3" d="M199.55,55,201,51l0,1.18-3.31-8.13h1.09l2.71,6.8h-.44l2.5-6.8h1L200.58,55Z"/><path class="cls-3" d="M205.85,51.65V41.57h1V46h-.11v5.69Zm3.4.21a2.92,2.92,0,0,1-1.76-.53,3.28,3.28,0,0,1-1.09-1.43,5.33,5.33,0,0,1-.37-2,5.26,5.26,0,0,1,.37-2,3.22,3.22,0,0,1,1.1-1.42,3,3,0,0,1,1.8-.52,3,3,0,0,1,1.77.52,3.31,3.31,0,0,1,1.14,1.43,4.94,4.94,0,0,1,.4,2,5.08,5.08,0,0,1-.4,2,3.4,3.4,0,0,1-1.15,1.43A3.07,3.07,0,0,1,209.25,51.86Zm-.1-1a2.09,2.09,0,0,0,1.32-.4,2.4,2.4,0,0,0,.78-1.09,4.2,4.2,0,0,0,.27-1.55,4.4,4.4,0,0,0-.26-1.54,2.44,2.44,0,0,0-.79-1.08,2.13,2.13,0,0,0-1.34-.4,2.16,2.16,0,0,0-1.31.38,2.32,2.32,0,0,0-.78,1.07,4.87,4.87,0,0,0,0,3.14,2.3,2.3,0,0,0,.78,1.08A2.16,2.16,0,0,0,209.15,50.9Z"/><path class="cls-3" d="M217.3,51.86a3.48,3.48,0,0,1-1.92-.51,3.38,3.38,0,0,1-1.23-1.41,4.92,4.92,0,0,1-.42-2.08,4.68,4.68,0,0,1,.43-2.08,3.25,3.25,0,0,1,1.24-1.4,3.9,3.9,0,0,1,3.84,0,3.35,3.35,0,0,1,1.23,1.4,4.84,4.84,0,0,1,.42,2.07,4.73,4.73,0,0,1-.43,2.09,3.25,3.25,0,0,1-1.23,1.41A3.62,3.62,0,0,1,217.3,51.86Zm0-1a2.2,2.2,0,0,0,1.88-.83,3.61,3.61,0,0,0,.62-2.18,3.53,3.53,0,0,0-.62-2.18,2.23,2.23,0,0,0-1.88-.81,2.33,2.33,0,0,0-1.39.38,2.2,2.2,0,0,0-.82,1.06,4.13,4.13,0,0,0-.27,1.55,3.52,3.52,0,0,0,.63,2.19A2.18,2.18,0,0,0,217.3,50.87Z"/><path class="cls-3" d="M225.58,51.86a3.48,3.48,0,0,1-1.92-.51,3.29,3.29,0,0,1-1.22-1.41,4.78,4.78,0,0,1-.43-2.08,4.68,4.68,0,0,1,.43-2.08,3.25,3.25,0,0,1,1.24-1.4,3.9,3.9,0,0,1,3.84,0,3.35,3.35,0,0,1,1.23,1.4,4.84,4.84,0,0,1,.42,2.07,4.73,4.73,0,0,1-.43,2.09,3.25,3.25,0,0,1-1.23,1.41A3.62,3.62,0,0,1,225.58,51.86Zm0-1a2.2,2.2,0,0,0,1.88-.83,3.61,3.61,0,0,0,.62-2.18,3.53,3.53,0,0,0-.62-2.18,2.23,2.23,0,0,0-1.88-.81,2.33,2.33,0,0,0-1.39.38,2.2,2.2,0,0,0-.82,1.06,4.13,4.13,0,0,0-.27,1.55,3.52,3.52,0,0,0,.63,2.19A2.18,2.18,0,0,0,225.58,50.87Z"/><path class="cls-3" d="M230.7,51.65V41.57h1v6.16l3.38-3.64h1.37L233,47.87l4,3.78h-1.5L231.74,48v3.64Z"/><path class="cls-3" d="M241.26,41.57l-2.69,10.08h-1.06l2.69-10.08Z"/><path class="cls-4" d="M182.58,57.22V233.51a4,4,0,0,0,4,4h0"/><line class="cls-4" x1="182.58" y1="219.9" x2="186.58" y2="219.9"/><line class="cls-4" x1="182.58" y1="143.46" x2="186.58" y2="143.46"/><line class="cls-4" x1="182.58" y1="67.02" x2="186.58" y2="67.02"/><path class="cls-3" d="M192.49,71.47a3.06,3.06,0,0,1-1.8-.53,3.4,3.4,0,0,1-1.15-1.43,5.38,5.38,0,0,1,0-4.07A3.36,3.36,0,0,1,190.67,64a3,3,0,0,1,1.78-.52,3,3,0,0,1,1.79.52,3.16,3.16,0,0,1,1.11,1.42,5.23,5.23,0,0,1,.37,2,5.33,5.33,0,0,1-.37,2,3.28,3.28,0,0,1-1.09,1.43A2.93,2.93,0,0,1,192.49,71.47Zm.07,3.36a4,4,0,0,1-1.14-.17,3.44,3.44,0,0,1-1-.54,3,3,0,0,1-.8-1l.93-.51a1.9,1.9,0,0,0,.89.9,2.57,2.57,0,0,0,1.16.28,2.49,2.49,0,0,0,1.33-.31,1.75,1.75,0,0,0,.74-.9,4,4,0,0,0,.22-1.48v-2H195V63.7h.92v7.45c0,.22,0,.43,0,.62a3.81,3.81,0,0,1-.07.59,3,3,0,0,1-.54,1.39,2.42,2.42,0,0,1-1.1.81A4.29,4.29,0,0,1,192.56,74.83Zm0-4.32a2.16,2.16,0,0,0,1.33-.39,2.3,2.3,0,0,0,.78-1.08,4.87,4.87,0,0,0,0-3.14,2.32,2.32,0,0,0-.78-1.07,2.18,2.18,0,0,0-1.31-.38,2.13,2.13,0,0,0-1.34.4,2.3,2.3,0,0,0-.79,1.08,4.72,4.72,0,0,0,0,3.09,2.41,2.41,0,0,0,.79,1.09A2.09,2.09,0,0,0,192.6,70.51Z"/><path class="cls-3" d="M197.85,71.26V63.7h.92v1.82l-.18-.24a2.46,2.46,0,0,1,.33-.62,2.16,2.16,0,0,1,.44-.46,2,2,0,0,1,.69-.4,3.08,3.08,0,0,1,.79-.16,2.17,2.17,0,0,1,.73.06v1a2.48,2.48,0,0,0-.91,0,1.61,1.61,0,0,0-.9.39,1.92,1.92,0,0,0-.57.7,3.22,3.22,0,0,0-.25.87,7.07,7.07,0,0,0-.06.91v3.77Z"/><path class="cls-3" d="M205.91,71.47A3.48,3.48,0,0,1,204,71a3.35,3.35,0,0,1-1.23-1.42,4.84,4.84,0,0,1-.42-2.07,4.68,4.68,0,0,1,.43-2.08A3.25,3.25,0,0,1,204,64a3.9,3.9,0,0,1,3.84,0,3.27,3.27,0,0,1,1.22,1.4,4.7,4.7,0,0,1,.43,2.07,4.87,4.87,0,0,1-.43,2.09A3.31,3.31,0,0,1,207.84,71,3.62,3.62,0,0,1,205.91,71.47Zm0-1a2.2,2.2,0,0,0,1.88-.83,3.61,3.61,0,0,0,.61-2.18,3.53,3.53,0,0,0-.61-2.18,2.23,2.23,0,0,0-1.88-.81,2.33,2.33,0,0,0-1.39.38,2.2,2.2,0,0,0-.82,1.06,4.13,4.13,0,0,0-.27,1.55,3.52,3.52,0,0,0,.63,2.19A2.18,2.18,0,0,0,205.91,70.48Z"/><path class="cls-3" d="M213.93,71.45a3.09,3.09,0,0,1-1.19-.21,2.59,2.59,0,0,1-.86-.57,2.83,2.83,0,0,1-.57-.81,4,4,0,0,1-.32-1,5.86,5.86,0,0,1-.09-1V63.7h1v3.86a5.2,5.2,0,0,0,.12,1.15,2.79,2.79,0,0,0,.38.93,1.81,1.81,0,0,0,.68.61,2.12,2.12,0,0,0,1,.22,2.27,2.27,0,0,0,1-.19,2.06,2.06,0,0,0,.7-.54,2.57,2.57,0,0,0,.43-.86,4.47,4.47,0,0,0,.14-1.15l.73.16a4.28,4.28,0,0,1-.4,2A2.89,2.89,0,0,1,215.56,71,3.23,3.23,0,0,1,213.93,71.45Zm2.54-.19V69.4h-.11V63.7h1v7.56Z"/><path class="cls-3" d="M219.35,74.62V63.7h.92v5.69h.11v5.23Zm3.4-3.15a2.93,2.93,0,0,1-1.77-.53,3.28,3.28,0,0,1-1.09-1.43,5.33,5.33,0,0,1-.37-2,5.23,5.23,0,0,1,.38-2A3.15,3.15,0,0,1,221,64a3,3,0,0,1,1.79-.52,3,3,0,0,1,1.78.52,3.36,3.36,0,0,1,1.13,1.43,5.38,5.38,0,0,1,0,4.07,3.33,3.33,0,0,1-1.15,1.43A3.06,3.06,0,0,1,222.75,71.47Zm-.11-1a2.09,2.09,0,0,0,1.32-.4,2.41,2.41,0,0,0,.79-1.09,4.72,4.72,0,0,0,0-3.09,2.36,2.36,0,0,0-.79-1.08,2.13,2.13,0,0,0-1.34-.4,2.18,2.18,0,0,0-1.31.38,2.32,2.32,0,0,0-.78,1.07,4.87,4.87,0,0,0,0,3.14,2.3,2.3,0,0,0,.78,1.08A2.18,2.18,0,0,0,222.64,70.51Z"/><path class="cls-3" d="M226.66,72.75v-.88h9.24v.88Z"/><path class="cls-3" d="M238.92,71.26l-2.74-7.56h1l2.24,6.22,2.22-6.22h1L240,71.26Z"/><path class="cls-3" d="M245.73,71.47a3,3,0,0,1-1.43-.31,2.07,2.07,0,0,1-.86-.82,2.24,2.24,0,0,1-.29-1.11,2,2,0,0,1,.93-1.77,3.36,3.36,0,0,1,1-.43c.38-.09.8-.17,1.27-.25l1.36-.19,1.18-.15-.37.22a2.44,2.44,0,0,0-.43-1.66,2,2,0,0,0-1.58-.54,2.4,2.4,0,0,0-1.32.35,1.89,1.89,0,0,0-.75,1.11l-1-.3a2.67,2.67,0,0,1,1-1.57,3.44,3.44,0,0,1,2-.56,3.66,3.66,0,0,1,1.76.39,2.24,2.24,0,0,1,1,1.12,2.77,2.77,0,0,1,.18.74,7.38,7.38,0,0,1,0,.82v4.7h-.92v-1.9l.27.11a3,3,0,0,1-1.2,1.49A3.59,3.59,0,0,1,245.73,71.47Zm.12-.89a2.92,2.92,0,0,0,1.26-.26,2.26,2.26,0,0,0,.87-.71,2.44,2.44,0,0,0,.43-1,3.32,3.32,0,0,0,.09-.8c0-.29,0-.51,0-.65l.39.2-1.14.14-1.2.16a8.73,8.73,0,0,0-1.07.22,3,3,0,0,0-.62.25,1.52,1.52,0,0,0-.5.44,1.21,1.21,0,0,0-.19.68,1.36,1.36,0,0,0,.17.64,1.31,1.31,0,0,0,.53.51A2.06,2.06,0,0,0,245.85,70.58Z"/><path class="cls-3" d="M251.35,71.26V63.7h.92v1.82l-.18-.24a2.46,2.46,0,0,1,.33-.62,2.16,2.16,0,0,1,.44-.46,2,2,0,0,1,.69-.4,3.08,3.08,0,0,1,.79-.16,2.17,2.17,0,0,1,.73.06v1a2.48,2.48,0,0,0-.91,0,1.61,1.61,0,0,0-.9.39,1.92,1.92,0,0,0-.57.7,3.22,3.22,0,0,0-.25.87,7.07,7.07,0,0,0-.06.91v3.77Z"/><path class="cls-3" d="M258.94,71.46a3.87,3.87,0,0,1-2.19-.57,2.39,2.39,0,0,1-1.05-1.6l1.05-.17a1.65,1.65,0,0,0,.76,1,2.65,2.65,0,0,0,1.48.38,2.26,2.26,0,0,0,1.36-.36,1.14,1.14,0,0,0,.5-1,.94.94,0,0,0-.16-.57,1.41,1.41,0,0,0-.64-.41c-.32-.13-.8-.27-1.44-.45a8.85,8.85,0,0,1-1.61-.56,2,2,0,0,1-.83-.64,1.63,1.63,0,0,1-.24-.9,1.84,1.84,0,0,1,.36-1.13,2.32,2.32,0,0,1,1-.76,3.86,3.86,0,0,1,1.5-.27,3.9,3.9,0,0,1,1.53.28,2.73,2.73,0,0,1,1.09.77,2.19,2.19,0,0,1,.48,1.15l-1,.19a1.5,1.5,0,0,0-.66-1,2.47,2.47,0,0,0-1.41-.4,2.3,2.3,0,0,0-1.31.3,1,1,0,0,0-.5.87.76.76,0,0,0,.18.51,1.63,1.63,0,0,0,.66.4,11.2,11.2,0,0,0,1.37.42,7.9,7.9,0,0,1,1.64.56,2,2,0,0,1,.85.69,1.8,1.8,0,0,1,.25,1,2,2,0,0,1-.8,1.68A3.45,3.45,0,0,1,258.94,71.46Z"/><path class="cls-3" d="M267.07,61.18l-2.69,10.08h-1.05L266,61.18Z"/><path class="cls-4" d="M192.58,76.83v45a4,4,0,0,0,4,4h0"/><line class="cls-4" x1="192.58" y1="106.24" x2="196.58" y2="106.24"/><line class="cls-4" x1="192.58" y1="86.63" x2="196.58" y2="86.63"/><path class="cls-3" d="M199.55,94.23V83.31h.93V89h.11v5.23Zm3.4-3.15a2.92,2.92,0,0,1-1.76-.53,3.28,3.28,0,0,1-1.09-1.43,5.84,5.84,0,0,1,0-4.09,3.24,3.24,0,0,1,1.1-1.41,3,3,0,0,1,1.8-.52,3,3,0,0,1,1.77.52,3.31,3.31,0,0,1,1.14,1.43,4.9,4.9,0,0,1,.4,2,5.08,5.08,0,0,1-.4,2,3.4,3.4,0,0,1-1.15,1.43A3.07,3.07,0,0,1,203,91.08Zm-.1-1a2.09,2.09,0,0,0,1.32-.4,2.33,2.33,0,0,0,.78-1.09,4.2,4.2,0,0,0,.27-1.55,4.4,4.4,0,0,0-.26-1.54,2.38,2.38,0,0,0-.79-1.08,2.13,2.13,0,0,0-1.34-.4,2.16,2.16,0,0,0-1.31.38,2.32,2.32,0,0,0-.78,1.07,4.87,4.87,0,0,0,0,3.14,2.3,2.3,0,0,0,.78,1.08A2.16,2.16,0,0,0,202.85,90.12Z"/><path class="cls-3" d="M207.85,90.87V83.31h.92v1.82l-.18-.24a2.46,2.46,0,0,1,.33-.62,1.94,1.94,0,0,1,.44-.46,1.9,1.9,0,0,1,.69-.4,3.08,3.08,0,0,1,.79-.16,2.09,2.09,0,0,1,.72.06v1a2.65,2.65,0,0,0-.9,0,1.61,1.61,0,0,0-.9.39,1.92,1.92,0,0,0-.57.7,3.12,3.12,0,0,0-.25.87,7.07,7.07,0,0,0-.06.91v3.77Z"/><path class="cls-3" d="M215.91,91.08a3.48,3.48,0,0,1-1.92-.51,3.28,3.28,0,0,1-1.23-1.42,4.84,4.84,0,0,1-.43-2.07,4.68,4.68,0,0,1,.44-2.08A3.3,3.3,0,0,1,214,83.6a3.92,3.92,0,0,1,3.85,0,3.21,3.21,0,0,1,1.22,1.4,5.25,5.25,0,0,1,0,4.16,3.38,3.38,0,0,1-1.23,1.41A3.62,3.62,0,0,1,215.91,91.08Zm0-1a2.2,2.2,0,0,0,1.88-.83,3.61,3.61,0,0,0,.61-2.18,3.46,3.46,0,0,0-.62-2.18,2.19,2.19,0,0,0-1.87-.81,2.33,2.33,0,0,0-1.39.38,2.22,2.22,0,0,0-.82,1,4.22,4.22,0,0,0-.27,1.56,3.52,3.52,0,0,0,.63,2.19A2.18,2.18,0,0,0,215.91,90.09Z"/><path class="cls-3" d="M224,91.08a3.07,3.07,0,0,1-1.81-.53A3.4,3.4,0,0,1,221,89.12a5.38,5.38,0,0,1,0-4.07,3.31,3.31,0,0,1,1.14-1.43,3.32,3.32,0,0,1,3.57,0,3.24,3.24,0,0,1,1.1,1.41,5.84,5.84,0,0,1,0,4.09,3.21,3.21,0,0,1-1.09,1.43A2.92,2.92,0,0,1,224,91.08Zm.1-1a2.16,2.16,0,0,0,1.33-.39,2.38,2.38,0,0,0,.79-1.08,4.87,4.87,0,0,0,0-3.14,2.47,2.47,0,0,0-.78-1.07,2.22,2.22,0,0,0-1.32-.38,2.13,2.13,0,0,0-1.34.4,2.31,2.31,0,0,0-.79,1.08,4.4,4.4,0,0,0-.25,1.54,4.2,4.2,0,0,0,.26,1.55,2.41,2.41,0,0,0,.79,1.09A2.08,2.08,0,0,0,224.07,90.12Zm2.38.75V85.18h-.12V80.79h1V90.87Z"/><path class="cls-3" d="M232.22,91.06a3.12,3.12,0,0,1-1.19-.21,2.69,2.69,0,0,1-.86-.57,3.29,3.29,0,0,1-.57-.81,4,4,0,0,1-.31-1,5,5,0,0,1-.1-1V83.31h1v3.86a5.2,5.2,0,0,0,.12,1.15,2.5,2.5,0,0,0,.38.93,1.74,1.74,0,0,0,.68.61,2.07,2.07,0,0,0,1,.22,2.25,2.25,0,0,0,1-.19,2,2,0,0,0,.7-.54,2.57,2.57,0,0,0,.43-.86,4.06,4.06,0,0,0,.15-1.15l.73.16a4.28,4.28,0,0,1-.41,2,2.81,2.81,0,0,1-1.12,1.19A3.27,3.27,0,0,1,232.22,91.06Zm2.54-.19V89h-.1v-5.7h1v7.56Z"/><path class="cls-3" d="M240.78,91.08a3.49,3.49,0,0,1-1.93-.51,3.19,3.19,0,0,1-1.2-1.41,5.16,5.16,0,0,1-.42-2.07,5.06,5.06,0,0,1,.43-2.09,3.19,3.19,0,0,1,1.21-1.4,3.89,3.89,0,0,1,3.92.06A2.83,2.83,0,0,1,244,85.19l-1,.32a2.16,2.16,0,0,0-.85-1.05,2.62,2.62,0,0,0-2.7,0,2.29,2.29,0,0,0-.81,1.06,4.18,4.18,0,0,0-.27,1.56,3.64,3.64,0,0,0,.63,2.18,2.13,2.13,0,0,0,1.83.82,2.43,2.43,0,0,0,1.32-.35,2.24,2.24,0,0,0,.82-1l1,.3a3.24,3.24,0,0,1-1.23,1.54A3.5,3.5,0,0,1,240.78,91.08Z"/><path class="cls-3" d="M244.56,84.19v-.88h4.95v.88Zm4.95,6.68a4.84,4.84,0,0,1-1.25.1,2.59,2.59,0,0,1-1.11-.26,1.61,1.61,0,0,1-.74-.74,2.06,2.06,0,0,1-.22-.85c0-.29,0-.62,0-1V81.21h1v6.88c0,.32,0,.58,0,.79a1.3,1.3,0,0,0,.15.57,1.05,1.05,0,0,0,.8.56,4.56,4.56,0,0,0,1.36,0Z"/><path class="cls-3" d="M251.14,81.87V80.72h1v1.15Zm0,9V83.31h1v7.56Z"/><path class="cls-3" d="M257.43,91.08a3.54,3.54,0,0,1-1.93-.51,3.26,3.26,0,0,1-1.22-1.42,5.17,5.17,0,0,1,0-4.15,3.23,3.23,0,0,1,1.23-1.4,3.58,3.58,0,0,1,1.91-.5,3.52,3.52,0,0,1,1.93.51,3.17,3.17,0,0,1,1.23,1.4,5.36,5.36,0,0,1,0,4.16,3.34,3.34,0,0,1-1.24,1.41A3.56,3.56,0,0,1,257.43,91.08Zm0-1a2.18,2.18,0,0,0,1.87-.83,4.14,4.14,0,0,0,0-4.36,2.21,2.21,0,0,0-1.87-.81,2.36,2.36,0,0,0-1.4.38,2.28,2.28,0,0,0-.82,1,4.22,4.22,0,0,0-.27,1.56,3.52,3.52,0,0,0,.63,2.19A2.19,2.19,0,0,0,257.43,90.09Z"/><path class="cls-3" d="M262.54,90.87V83.31h.94v1.86h.1v5.7Zm5.47,0V87a5.3,5.3,0,0,0-.12-1.16,2.63,2.63,0,0,0-.38-.92,1.74,1.74,0,0,0-.68-.61,2.09,2.09,0,0,0-1-.22,2.25,2.25,0,0,0-1,.19,2,2,0,0,0-.7.54,2.48,2.48,0,0,0-.43.86,4,4,0,0,0-.15,1.15l-.73-.16a4.28,4.28,0,0,1,.41-2,2.81,2.81,0,0,1,1.12-1.19,3.25,3.25,0,0,1,1.64-.41,3.07,3.07,0,0,1,1.18.21,2.49,2.49,0,0,1,.86.57,3.08,3.08,0,0,1,.58.81,4.48,4.48,0,0,1,.31,1,5,5,0,0,1,.1,1v4.16Z"/><path class="cls-3" d="M271.06,90.87v-1.2h1.2v1.2Z"/><path class="cls-3" d="M275.49,94.23l1.47-4,0,1.18-3.31-8.13h1.09l2.72,6.8H277l2.5-6.8h1.05l-4.06,10.92Z"/><path class="cls-3" d="M281.79,90.87V83.31h.93v1.86h.11v5.7Zm4.53,0V86a2,2,0,0,0-.48-1.43,1.62,1.62,0,0,0-1.26-.52,1.64,1.64,0,0,0-1.27.54,2,2,0,0,0-.48,1.42l-.62-.34a2.48,2.48,0,0,1,.35-1.3,2.42,2.42,0,0,1,.94-.91,2.7,2.7,0,0,1,1.35-.33,2.66,2.66,0,0,1,1.28.3,2.27,2.27,0,0,1,.89.9,3,3,0,0,1,.32,1.43v5.13Zm4.5,0v-5a1.9,1.9,0,0,0-.48-1.38,1.68,1.68,0,0,0-1.24-.5,1.91,1.91,0,0,0-.83.2,1.61,1.61,0,0,0-.67.63,2.2,2.2,0,0,0-.26,1.13l-.61-.18a2.73,2.73,0,0,1,.32-1.42,2.36,2.36,0,0,1,.94-.94,2.66,2.66,0,0,1,1.35-.34,2.44,2.44,0,0,1,1.83.7,2.59,2.59,0,0,1,.68,1.9v5.16Z"/><path class="cls-3" d="M293.81,90.87V80.58h1V90.87Z"/><path class="cls-3" d="M202.38,110.68a3.9,3.9,0,0,1-2.19-.57,2.39,2.39,0,0,1-1.05-1.6l1.05-.17a1.66,1.66,0,0,0,.77,1,2.63,2.63,0,0,0,1.48.38,2.25,2.25,0,0,0,1.35-.36,1.12,1.12,0,0,0,.5-1,.94.94,0,0,0-.16-.57,1.35,1.35,0,0,0-.64-.41c-.32-.13-.8-.27-1.44-.45a9.14,9.14,0,0,1-1.61-.56,1.93,1.93,0,0,1-.82-.64,1.56,1.56,0,0,1-.25-.9,1.89,1.89,0,0,1,.36-1.14,2.44,2.44,0,0,1,1-.75,3.86,3.86,0,0,1,1.5-.27,3.9,3.9,0,0,1,1.53.28,2.73,2.73,0,0,1,1.09.77,2.2,2.2,0,0,1,.49,1.15l-1,.19a1.53,1.53,0,0,0-.66-1,2.47,2.47,0,0,0-1.41-.4,2.18,2.18,0,0,0-1.31.3,1,1,0,0,0-.51.87.72.72,0,0,0,.19.51,1.63,1.63,0,0,0,.66.4,10.66,10.66,0,0,0,1.37.42,7.78,7.78,0,0,1,1.63.56,2,2,0,0,1,.85.69,1.8,1.8,0,0,1,.25,1,2,2,0,0,1-.79,1.68A3.5,3.5,0,0,1,202.38,110.68Z"/><path class="cls-3" d="M206.07,103.8v-.88h5v.88Zm5,6.68a4.84,4.84,0,0,1-1.25.1,2.67,2.67,0,0,1-1.11-.26,1.66,1.66,0,0,1-.74-.74,2.43,2.43,0,0,1-.22-.85c0-.29,0-.62,0-1v-6.92h1v6.88c0,.32,0,.58,0,.8a1.25,1.25,0,0,0,.14.56,1.07,1.07,0,0,0,.8.56,4.25,4.25,0,0,0,1.36,0Z"/><path class="cls-3" d="M214.68,110.69a2.94,2.94,0,0,1-1.43-.31,2,2,0,0,1-.87-.82,2.23,2.23,0,0,1-.28-1.11,2,2,0,0,1,.25-1,2,2,0,0,1,.67-.72,3.36,3.36,0,0,1,1-.43c.38-.09.81-.17,1.27-.25l1.37-.19,1.17-.15-.36.22a2.5,2.5,0,0,0-.44-1.66,2,2,0,0,0-1.58-.54,2.35,2.35,0,0,0-1.31.35,1.91,1.91,0,0,0-.76,1.11l-1-.3a2.68,2.68,0,0,1,1.05-1.57,3.43,3.43,0,0,1,2-.56,3.66,3.66,0,0,1,1.76.39,2.16,2.16,0,0,1,1,1.12,2.77,2.77,0,0,1,.18.74,7.38,7.38,0,0,1,0,.82v4.7h-.91v-1.9l.26.11a3,3,0,0,1-1.19,1.49A3.61,3.61,0,0,1,214.68,110.69Zm.12-.89a2.92,2.92,0,0,0,1.26-.26,2.26,2.26,0,0,0,.87-.71,2.31,2.31,0,0,0,.42-1,3.32,3.32,0,0,0,.09-.8c0-.29,0-.51,0-.65l.39.2-1.13.14-1.21.16a8.55,8.55,0,0,0-1.06.22,2.85,2.85,0,0,0-.63.25,1.48,1.48,0,0,0-.49.44,1.14,1.14,0,0,0-.19.68,1.35,1.35,0,0,0,.16.64,1.37,1.37,0,0,0,.53.51A2.1,2.1,0,0,0,214.8,109.8Z"/><path class="cls-3" d="M223.23,110.69a3.07,3.07,0,0,1-1.81-.53,3.4,3.4,0,0,1-1.15-1.43,5.08,5.08,0,0,1-.4-2,4.9,4.9,0,0,1,.4-2,3.31,3.31,0,0,1,1.14-1.43,3,3,0,0,1,1.77-.52,3,3,0,0,1,1.8.52,3.22,3.22,0,0,1,1.1,1.42,5.23,5.23,0,0,1,.37,2,5.33,5.33,0,0,1-.37,2,3.28,3.28,0,0,1-1.09,1.43A2.92,2.92,0,0,1,223.23,110.69Zm.07,3.36a4.11,4.11,0,0,1-1.15-.17,3.56,3.56,0,0,1-1-.54,3,3,0,0,1-.8-1l.93-.51a1.9,1.9,0,0,0,.89.9,2.58,2.58,0,0,0,1.17.28,2.48,2.48,0,0,0,1.32-.31,1.7,1.7,0,0,0,.74-.9,4,4,0,0,0,.23-1.48v-2h.11v-5.42h.92v7.45c0,.22,0,.43,0,.62a5.61,5.61,0,0,1-.06.59A3,3,0,0,1,226,113a2.4,2.4,0,0,1-1.09.81A4.36,4.36,0,0,1,223.3,114.05Zm0-4.32a2.16,2.16,0,0,0,1.33-.39,2.3,2.3,0,0,0,.78-1.08,4.87,4.87,0,0,0,0-3.14,2.32,2.32,0,0,0-.78-1.07,2.16,2.16,0,0,0-1.31-.38,2.13,2.13,0,0,0-1.34.4,2.3,2.3,0,0,0-.79,1.08,4.4,4.4,0,0,0-.25,1.54,4.2,4.2,0,0,0,.26,1.55,2.28,2.28,0,0,0,.79,1.09A2,2,0,0,0,223.33,109.73Z"/><path class="cls-3" d="M228.72,101.48v-1.15h1v1.15Zm0,9v-7.56h1v7.56Z"/><path class="cls-3" d="M231.84,110.48v-7.56h.93v1.86h.11v5.7Zm5.47,0v-3.86a5.3,5.3,0,0,0-.12-1.16,2.83,2.83,0,0,0-.38-.92,1.74,1.74,0,0,0-.68-.61,2.09,2.09,0,0,0-1-.22,2.25,2.25,0,0,0-1,.19,2,2,0,0,0-.7.54,2.32,2.32,0,0,0-.43.86,4.06,4.06,0,0,0-.15,1.15l-.73-.16a4.28,4.28,0,0,1,.41-2,2.81,2.81,0,0,1,1.12-1.19,3.25,3.25,0,0,1,1.64-.41,3.07,3.07,0,0,1,1.18.21,2.49,2.49,0,0,1,.86.57,2.83,2.83,0,0,1,.57.81,4,4,0,0,1,.32,1,5.87,5.87,0,0,1,.1,1v4.16Z"/><path class="cls-3" d="M243.1,110.69a3.07,3.07,0,0,1-1.81-.53,3.31,3.31,0,0,1-1.14-1.43,4.92,4.92,0,0,1-.4-2,5.07,5.07,0,0,1,.39-2,3.31,3.31,0,0,1,1.14-1.43,3.32,3.32,0,0,1,3.57,0,3.22,3.22,0,0,1,1.1,1.42,5.23,5.23,0,0,1,.38,2,5.33,5.33,0,0,1-.38,2,3.21,3.21,0,0,1-1.09,1.43A2.92,2.92,0,0,1,243.1,110.69Zm.07,3.36a4.11,4.11,0,0,1-1.15-.17,3.56,3.56,0,0,1-1-.54,3,3,0,0,1-.79-1l.93-.51a1.88,1.88,0,0,0,.88.9,2.58,2.58,0,0,0,1.17.28,2.49,2.49,0,0,0,1.33-.31,1.73,1.73,0,0,0,.73-.9,4,4,0,0,0,.23-1.48v-2h.12v-5.42h.91v7.45c0,.22,0,.43,0,.62s0,.4-.07.59a3,3,0,0,1-.55,1.39,2.4,2.4,0,0,1-1.09.81A4.32,4.32,0,0,1,243.17,114.05Zm0-4.32a2.16,2.16,0,0,0,1.33-.39,2.31,2.31,0,0,0,.79-1.08,4.87,4.87,0,0,0,0-3.14,2.32,2.32,0,0,0-.78-1.07,2.21,2.21,0,0,0-1.31-.38,2.16,2.16,0,0,0-1.35.4,2.36,2.36,0,0,0-.79,1.08,4.81,4.81,0,0,0,0,3.09,2.41,2.41,0,0,0,.79,1.09A2.08,2.08,0,0,0,243.2,109.73Z"/><path class="cls-3" d="M248.65,110.48v-1.2h1.2v1.2Z"/><path class="cls-3" d="M253.08,113.84l1.46-4,0,1.18-3.31-8.13h1.1l2.71,6.8h-.45l2.51-6.8h1.05l-4.06,10.92Z"/><path class="cls-3" d="M259.38,110.48v-7.56h.93v1.86h.11v5.7Zm4.52,0v-4.89a2,2,0,0,0-.48-1.43,1.77,1.77,0,0,0-2.53,0,2,2,0,0,0-.48,1.42l-.62-.34a2.46,2.46,0,0,1,1.28-2.21,2.92,2.92,0,0,1,2.64,0,2.24,2.24,0,0,1,.88.9,2.88,2.88,0,0,1,.32,1.43v5.13Zm4.5,0v-5a1.86,1.86,0,0,0-.49-1.38,1.64,1.64,0,0,0-1.23-.5,1.88,1.88,0,0,0-.83.2,1.56,1.56,0,0,0-.67.63,2.1,2.1,0,0,0-.27,1.13l-.6-.17a2.75,2.75,0,0,1,.31-1.43,2.43,2.43,0,0,1,.94-.94,2.67,2.67,0,0,1,1.36-.34,2.4,2.4,0,0,1,1.82.7,2.59,2.59,0,0,1,.69,1.9v5.16Z"/><path class="cls-3" d="M271.4,110.48V100.19h1v10.29Z"/><path class="cls-3" d="M202.49,130.3a3.06,3.06,0,0,1-1.8-.53,3.33,3.33,0,0,1-1.15-1.43,4.92,4.92,0,0,1-.4-2,5.07,5.07,0,0,1,.39-2,3.46,3.46,0,0,1,1.14-1.43,3,3,0,0,1,1.78-.52,3,3,0,0,1,1.79.52,3.19,3.19,0,0,1,1.11,1.41,5.51,5.51,0,0,1,.37,2,5.33,5.33,0,0,1-.37,2,3.28,3.28,0,0,1-1.09,1.43A2.93,2.93,0,0,1,202.49,130.3Zm.11-1a2.18,2.18,0,0,0,1.33-.39,2.3,2.3,0,0,0,.78-1.08,4.87,4.87,0,0,0,0-3.14,2.32,2.32,0,0,0-.78-1.07,2.46,2.46,0,0,0-2.66,0,2.35,2.35,0,0,0-.78,1.08,4.72,4.72,0,0,0,0,3.09,2.41,2.41,0,0,0,.79,1.09A2.09,2.09,0,0,0,202.6,129.34Zm2.37.75V124.4h-.11V120h1v10.08Z"/><path class="cls-3" d="M211.05,130.3a3.6,3.6,0,0,1-1.91-.49,3.37,3.37,0,0,1-1.26-1.38,4.57,4.57,0,0,1-.45-2.09,4.76,4.76,0,0,1,.45-2.14,3.23,3.23,0,0,1,1.24-1.39,3.5,3.5,0,0,1,1.89-.49,3.42,3.42,0,0,1,1.91.51,3.22,3.22,0,0,1,1.2,1.48,5.54,5.54,0,0,1,.37,2.29h-1.05v-.37a3.62,3.62,0,0,0-.63-2.22,2.16,2.16,0,0,0-1.77-.75,2.29,2.29,0,0,0-1.87.8,3.45,3.45,0,0,0-.64,2.25,3.38,3.38,0,0,0,.64,2.21,2.25,2.25,0,0,0,1.84.79,2.66,2.66,0,0,0,1.42-.37,2.58,2.58,0,0,0,.95-1.08l1,.37a3.41,3.41,0,0,1-1.32,1.53A3.64,3.64,0,0,1,211.05,130.3Zm-2.89-3.7v-.86h5.78v.86Z"/><path class="cls-3" d="M217.8,130.09l-2.74-7.56h1l2.23,6.22,2.22-6.22h1.06l-2.74,7.56Z"/><path class="cls-3" d="M225.79,130.3a3.61,3.61,0,0,1-1.92-.49,3.41,3.41,0,0,1-1.25-1.38,4.57,4.57,0,0,1-.45-2.09,4.89,4.89,0,0,1,.44-2.14,3.29,3.29,0,0,1,1.24-1.39,3.56,3.56,0,0,1,1.9-.49,3.47,3.47,0,0,1,1.91.51,3.2,3.2,0,0,1,1.19,1.48,5.37,5.37,0,0,1,.38,2.29h-1v-.37a3.56,3.56,0,0,0-.64-2.22,2.13,2.13,0,0,0-1.77-.75,2.26,2.26,0,0,0-1.86.8,3.45,3.45,0,0,0-.65,2.25,3.39,3.39,0,0,0,.65,2.21,2.23,2.23,0,0,0,1.84.79,2.6,2.6,0,0,0,1.41-.37,2.53,2.53,0,0,0,1-1.08l1,.37a3.41,3.41,0,0,1-1.32,1.53A3.67,3.67,0,0,1,225.79,130.3Zm-2.89-3.7v-.86h5.77v.86Z"/><path class="cls-3" d="M230.91,130.09V119.8h1v10.29Z"/><path class="cls-3" d="M237.2,130.3a3.54,3.54,0,0,1-1.93-.51,3.26,3.26,0,0,1-1.22-1.42,5.17,5.17,0,0,1,0-4.15,3.23,3.23,0,0,1,1.23-1.4,3.55,3.55,0,0,1,1.91-.5,3.52,3.52,0,0,1,1.93.51,3.22,3.22,0,0,1,1.23,1.4,4.84,4.84,0,0,1,.42,2.07,4.73,4.73,0,0,1-.43,2.09,3.25,3.25,0,0,1-1.23,1.41A3.59,3.59,0,0,1,237.2,130.3Zm0-1a2.18,2.18,0,0,0,1.87-.83,3.61,3.61,0,0,0,.62-2.18,3.53,3.53,0,0,0-.62-2.18,2.21,2.21,0,0,0-1.87-.81,2.36,2.36,0,0,0-1.4.38,2.28,2.28,0,0,0-.82,1,4.22,4.22,0,0,0-.27,1.56,3.52,3.52,0,0,0,.63,2.19A2.19,2.19,0,0,0,237.2,129.31Z"/><path class="cls-3" d="M242.31,133.45V122.53h.93v5.69h.11v5.23Zm3.41-3.15a2.93,2.93,0,0,1-1.77-.53,3.28,3.28,0,0,1-1.09-1.43,5.84,5.84,0,0,1,0-4.09,3.19,3.19,0,0,1,1.11-1.41,3,3,0,0,1,1.79-.52,3,3,0,0,1,1.78.52,3.36,3.36,0,0,1,1.13,1.43,5.38,5.38,0,0,1,0,4.07,3.33,3.33,0,0,1-1.15,1.43A3.06,3.06,0,0,1,245.72,130.3Zm-.11-1a2.09,2.09,0,0,0,1.32-.4,2.41,2.41,0,0,0,.79-1.09,4.72,4.72,0,0,0,0-3.09,2.36,2.36,0,0,0-.79-1.08,2.13,2.13,0,0,0-1.34-.4,2.18,2.18,0,0,0-1.31.38,2.32,2.32,0,0,0-.78,1.07,4.87,4.87,0,0,0,0,3.14,2.3,2.3,0,0,0,.78,1.08A2.18,2.18,0,0,0,245.61,129.34Z"/><path class="cls-3" d="M250.6,130.09v-7.56h.93v1.86h.11v5.7Zm4.53,0V125.2a2,2,0,0,0-.48-1.43,1.77,1.77,0,0,0-2.53,0,2,2,0,0,0-.48,1.42l-.62-.34a2.51,2.51,0,0,1,1.28-2.21,2.77,2.77,0,0,1,1.36-.33,2.69,2.69,0,0,1,1.28.3,2.27,2.27,0,0,1,.89.9,3,3,0,0,1,.32,1.43v5.13Zm4.5,0v-5a1.9,1.9,0,0,0-.48-1.38,1.68,1.68,0,0,0-1.24-.5,1.91,1.91,0,0,0-.83.2,1.56,1.56,0,0,0-.67.63,2.1,2.1,0,0,0-.26,1.13l-.61-.17a2.65,2.65,0,0,1,.32-1.43,2.4,2.4,0,0,1,.93-.94,2.69,2.69,0,0,1,1.36-.34,2.44,2.44,0,0,1,1.83.7,2.63,2.63,0,0,1,.68,1.9v5.16Z"/><path class="cls-3" d="M265.63,130.3a3.6,3.6,0,0,1-1.91-.49,3.37,3.37,0,0,1-1.26-1.38,4.57,4.57,0,0,1-.45-2.09,4.89,4.89,0,0,1,.44-2.14,3.31,3.31,0,0,1,1.25-1.39,3.5,3.5,0,0,1,1.89-.49,3.45,3.45,0,0,1,1.91.51,3.22,3.22,0,0,1,1.2,1.48,5.54,5.54,0,0,1,.37,2.29H268v-.37a3.62,3.62,0,0,0-.63-2.22,2.16,2.16,0,0,0-1.77-.75,2.29,2.29,0,0,0-1.87.8,3.45,3.45,0,0,0-.64,2.25,3.38,3.38,0,0,0,.64,2.21,2.25,2.25,0,0,0,1.84.79,2.66,2.66,0,0,0,1.42-.37,2.58,2.58,0,0,0,.95-1.08l1,.37a3.41,3.41,0,0,1-1.32,1.53A3.67,3.67,0,0,1,265.63,130.3Zm-2.89-3.7v-.86h5.78v.86Z"/><path class="cls-3" d="M270.4,130.09v-7.56h.93v1.86h.11v5.7Zm5.47,0v-3.86a5.3,5.3,0,0,0-.12-1.16,2.83,2.83,0,0,0-.38-.92,1.89,1.89,0,0,0-.68-.61,2.12,2.12,0,0,0-1-.22,2.27,2.27,0,0,0-1,.19,2.06,2.06,0,0,0-.7.54,2.48,2.48,0,0,0-.43.86,4.07,4.07,0,0,0-.14,1.15l-.73-.16a4.28,4.28,0,0,1,.4-2,2.87,2.87,0,0,1,1.12-1.19,3.3,3.3,0,0,1,1.64-.41,3.12,3.12,0,0,1,1.19.21,2.59,2.59,0,0,1,.86.57,3.29,3.29,0,0,1,.57.81,4,4,0,0,1,.31,1,5,5,0,0,1,.1,1v4.16Z"/><path class="cls-3" d="M277.88,123.41v-.88h5v.88Zm5,6.68a5,5,0,0,1-1.26.1,2.58,2.58,0,0,1-1.1-.26,1.56,1.56,0,0,1-.74-.74,2.06,2.06,0,0,1-.22-.85c0-.29,0-.62,0-1v-6.92h1v6.88c0,.32,0,.58,0,.79a1.45,1.45,0,0,0,.14.57,1.07,1.07,0,0,0,.81.56,4.56,4.56,0,0,0,1.36,0Z"/><path class="cls-3" d="M284.52,130.09v-1.2h1.2v1.2Z"/><path class="cls-3" d="M289,133.45l1.46-4,0,1.18-3.31-8.13h1.09l2.72,6.8h-.45l2.5-6.8h1.06L290,133.45Z"/><path class="cls-3" d="M295.26,130.09v-7.56h.92v1.86h.11v5.7Zm4.52,0V125.2a2.07,2.07,0,0,0-.47-1.43,1.79,1.79,0,0,0-2.54,0,2,2,0,0,0-.48,1.42l-.61-.34a2.47,2.47,0,0,1,.34-1.3,2.42,2.42,0,0,1,.94-.91,2.7,2.7,0,0,1,1.35-.33,2.66,2.66,0,0,1,1.28.3,2.27,2.27,0,0,1,.89.9,3,3,0,0,1,.32,1.43v5.13Zm4.5,0v-5a1.9,1.9,0,0,0-.49-1.38,1.67,1.67,0,0,0-1.24-.5,1.91,1.91,0,0,0-.83.2,1.61,1.61,0,0,0-.67.63,2.2,2.2,0,0,0-.26,1.13l-.61-.17a2.75,2.75,0,0,1,.32-1.43,2.43,2.43,0,0,1,.94-.94,2.66,2.66,0,0,1,1.35-.34,2.44,2.44,0,0,1,1.83.7,2.59,2.59,0,0,1,.68,1.9v5.16Z"/><path class="cls-3" d="M307.27,130.09V119.8h1v10.29Z"/><path class="cls-3" d="M189.7,138.7v-1.15h1v1.15Zm0,9v-7.56h1v7.56Z"/><path class="cls-3" d="M192.82,147.7v-7.56h.93V142h.11v5.7Zm5.47,0v-3.86a5.3,5.3,0,0,0-.12-1.16,2.83,2.83,0,0,0-.38-.92,1.81,1.81,0,0,0-.68-.61,2.12,2.12,0,0,0-1-.22,2.19,2.19,0,0,0-1,.19,1.88,1.88,0,0,0-.7.54,2.32,2.32,0,0,0-.43.86,4,4,0,0,0-.15,1.15l-.73-.16a4.28,4.28,0,0,1,.41-2,2.81,2.81,0,0,1,1.12-1.19,3.23,3.23,0,0,1,1.63-.41,3.09,3.09,0,0,1,1.19.21,2.49,2.49,0,0,1,.86.57,2.83,2.83,0,0,1,.57.81,4,4,0,0,1,.32,1,5.86,5.86,0,0,1,.09,1v4.16Z"/><path class="cls-3" d="M203.19,147.7l-2.74-7.56h1l2.23,6.21,2.22-6.21H207l-2.75,7.56Z"/><path class="cls-3" d="M211.18,147.91a3.61,3.61,0,0,1-1.92-.49A3.28,3.28,0,0,1,208,146a4.57,4.57,0,0,1-.45-2.09,4.76,4.76,0,0,1,.44-2.14,3.29,3.29,0,0,1,1.24-1.39,3.53,3.53,0,0,1,1.89-.49,3.48,3.48,0,0,1,1.92.51,3.26,3.26,0,0,1,1.19,1.48,5.38,5.38,0,0,1,.37,2.29h-1.05v-.37a3.62,3.62,0,0,0-.63-2.22,2.13,2.13,0,0,0-1.77-.75,2.26,2.26,0,0,0-1.86.8,3.45,3.45,0,0,0-.65,2.25,3.39,3.39,0,0,0,.65,2.21,2.22,2.22,0,0,0,1.83.79,2.51,2.51,0,0,0,2.38-1.45l1,.37a3.47,3.47,0,0,1-1.32,1.53A3.67,3.67,0,0,1,211.18,147.91Zm-2.89-3.7v-.86h5.77v.86Z"/><path class="cls-3" d="M215.94,147.7v-7.56h.93V142H217v5.7Zm5.47,0v-3.86a5.3,5.3,0,0,0-.12-1.16,2.83,2.83,0,0,0-.38-.92,1.81,1.81,0,0,0-.68-.61,2.09,2.09,0,0,0-1-.22,2.19,2.19,0,0,0-1,.19,2,2,0,0,0-.7.54,2.32,2.32,0,0,0-.43.86,4,4,0,0,0-.15,1.15l-.73-.16a4.28,4.28,0,0,1,.41-2,2.81,2.81,0,0,1,1.12-1.19,3.25,3.25,0,0,1,1.64-.41,3.07,3.07,0,0,1,1.18.21,2.49,2.49,0,0,1,.86.57,2.83,2.83,0,0,1,.57.81,4,4,0,0,1,.32,1,5.87,5.87,0,0,1,.1,1v4.16Z"/><path class="cls-3" d="M223.43,141v-.88h4.95V141Zm4.95,6.68a4.84,4.84,0,0,1-1.25.1,2.59,2.59,0,0,1-1.11-.26,1.66,1.66,0,0,1-.74-.74,2.23,2.23,0,0,1-.22-.85c0-.29,0-.62,0-1V138h1v6.88c0,.32,0,.58,0,.79a1.17,1.17,0,0,0,.14.57,1.05,1.05,0,0,0,.8.56,4.56,4.56,0,0,0,1.36,0Z"/><path class="cls-3" d="M232.75,147.91a3.48,3.48,0,0,1-1.92-.51A3.28,3.28,0,0,1,229.6,146a4.84,4.84,0,0,1-.43-2.07,4.68,4.68,0,0,1,.44-2.08,3.3,3.3,0,0,1,1.23-1.4,3.92,3.92,0,0,1,3.85,0,3.21,3.21,0,0,1,1.22,1.4,5.36,5.36,0,0,1,0,4.16,3.38,3.38,0,0,1-1.23,1.41A3.62,3.62,0,0,1,232.75,147.91Zm0-1a2.2,2.2,0,0,0,1.88-.83,3.61,3.61,0,0,0,.61-2.18,3.46,3.46,0,0,0-.62-2.18,2.19,2.19,0,0,0-1.87-.81,2.38,2.38,0,0,0-1.4.38,2.26,2.26,0,0,0-.81,1,4.22,4.22,0,0,0-.27,1.56,3.52,3.52,0,0,0,.63,2.19A2.17,2.17,0,0,0,232.75,146.92Z"/><path class="cls-3" d="M237.87,147.7v-7.56h.93V142l-.18-.24a2.8,2.8,0,0,1,.32-.62,2.19,2.19,0,0,1,.45-.46,1.86,1.86,0,0,1,.68-.4,3.17,3.17,0,0,1,.79-.16,2.14,2.14,0,0,1,.73.06v1a2.66,2.66,0,0,0-.9,0,1.64,1.64,0,0,0-.91.39,1.8,1.8,0,0,0-.56.7,2.82,2.82,0,0,0-.25.87,5.67,5.67,0,0,0-.07.91v3.77Z"/><path class="cls-3" d="M243.91,151.06l1.46-4,0,1.18-3.31-8.13h1.09l2.72,6.8h-.45l2.51-6.8H249l-4.06,10.92Z"/><path class="cls-3" d="M253.82,137.62l-2.69,10.08h-1.06l2.69-10.08Z"/><path class="cls-4" d="M192.58,153.27v45a4,4,0,0,0,4,4h0"/><line class="cls-4" x1="192.58" y1="182.68" x2="196.58" y2="182.68"/><line class="cls-4" x1="192.58" y1="163.07" x2="196.58" y2="163.07"/><path class="cls-3" d="M199.55,170.67V159.75h.93v5.69h.11v5.23Zm3.4-3.15a2.92,2.92,0,0,1-1.76-.53,3.28,3.28,0,0,1-1.09-1.43,5.84,5.84,0,0,1,0-4.09,3.24,3.24,0,0,1,1.1-1.41,3,3,0,0,1,1.8-.52,3,3,0,0,1,1.77.52,3.31,3.31,0,0,1,1.14,1.43,4.9,4.9,0,0,1,.4,2,5.08,5.08,0,0,1-.4,2,3.4,3.4,0,0,1-1.15,1.43A3.07,3.07,0,0,1,203,167.52Zm-.1-1a2.09,2.09,0,0,0,1.32-.4,2.33,2.33,0,0,0,.78-1.09,4.2,4.2,0,0,0,.27-1.55A4.4,4.4,0,0,0,205,162a2.38,2.38,0,0,0-.79-1.08,2.13,2.13,0,0,0-1.34-.4,2.16,2.16,0,0,0-1.31.38,2.32,2.32,0,0,0-.78,1.07,4.87,4.87,0,0,0,0,3.14,2.3,2.3,0,0,0,.78,1.08A2.16,2.16,0,0,0,202.85,166.56Z"/><path class="cls-3" d="M207.85,167.31v-7.56h.92v1.82l-.18-.24a2.46,2.46,0,0,1,.33-.62,1.94,1.94,0,0,1,.44-.46,1.9,1.9,0,0,1,.69-.4,3.08,3.08,0,0,1,.79-.16,2.09,2.09,0,0,1,.72.06v1a2.65,2.65,0,0,0-.9,0,1.61,1.61,0,0,0-.9.39,1.92,1.92,0,0,0-.57.7,3.12,3.12,0,0,0-.25.87,7.07,7.07,0,0,0-.06.91v3.77Z"/><path class="cls-3" d="M215.91,167.52A3.48,3.48,0,0,1,214,167a3.28,3.28,0,0,1-1.23-1.42,4.84,4.84,0,0,1-.43-2.07,4.68,4.68,0,0,1,.44-2.08A3.3,3.3,0,0,1,214,160a3.92,3.92,0,0,1,3.85,0,3.21,3.21,0,0,1,1.22,1.4,5.25,5.25,0,0,1,0,4.16,3.38,3.38,0,0,1-1.23,1.41A3.62,3.62,0,0,1,215.91,167.52Zm0-1a2.2,2.2,0,0,0,1.88-.83,3.61,3.61,0,0,0,.61-2.18,3.46,3.46,0,0,0-.62-2.18,2.19,2.19,0,0,0-1.87-.81,2.33,2.33,0,0,0-1.39.38,2.22,2.22,0,0,0-.82,1.05,4.22,4.22,0,0,0-.27,1.56,3.52,3.52,0,0,0,.63,2.19A2.18,2.18,0,0,0,215.91,166.53Z"/><path class="cls-3" d="M224,167.52a3.07,3.07,0,0,1-1.81-.53,3.4,3.4,0,0,1-1.15-1.43,5.38,5.38,0,0,1,0-4.07,3.31,3.31,0,0,1,1.14-1.43,3.32,3.32,0,0,1,3.57,0,3.24,3.24,0,0,1,1.1,1.41,5.84,5.84,0,0,1,0,4.09,3.21,3.21,0,0,1-1.09,1.43A2.92,2.92,0,0,1,224,167.52Zm.1-1a2.16,2.16,0,0,0,1.33-.39,2.38,2.38,0,0,0,.79-1.08,4.87,4.87,0,0,0,0-3.14,2.47,2.47,0,0,0-.78-1.07,2.22,2.22,0,0,0-1.32-.38,2.13,2.13,0,0,0-1.34.4A2.31,2.31,0,0,0,222,162a4.4,4.4,0,0,0-.25,1.54,4.2,4.2,0,0,0,.26,1.55,2.41,2.41,0,0,0,.79,1.09A2.08,2.08,0,0,0,224.07,166.56Zm2.38.75v-5.69h-.12v-4.39h1v10.08Z"/><path class="cls-3" d="M232.22,167.5a3.12,3.12,0,0,1-1.19-.21,2.69,2.69,0,0,1-.86-.57,3.29,3.29,0,0,1-.57-.81,4,4,0,0,1-.31-1,5,5,0,0,1-.1-1v-4.16h1v3.86a5.2,5.2,0,0,0,.12,1.15,2.5,2.5,0,0,0,.38.93,1.74,1.74,0,0,0,.68.61,2.07,2.07,0,0,0,1,.22,2.25,2.25,0,0,0,1-.19,2,2,0,0,0,.7-.54,2.57,2.57,0,0,0,.43-.86,4.06,4.06,0,0,0,.15-1.15l.73.16a4.28,4.28,0,0,1-.41,2,2.81,2.81,0,0,1-1.12,1.19A3.27,3.27,0,0,1,232.22,167.5Zm2.54-.19v-1.86h-.1v-5.7h1v7.56Z"/><path class="cls-3" d="M240.78,167.52a3.49,3.49,0,0,1-1.93-.51,3.19,3.19,0,0,1-1.2-1.41,5.16,5.16,0,0,1-.42-2.07,5.06,5.06,0,0,1,.43-2.09,3.19,3.19,0,0,1,1.21-1.4,3.89,3.89,0,0,1,3.92.06,2.83,2.83,0,0,1,1.16,1.53l-1,.32a2.16,2.16,0,0,0-.85-1,2.62,2.62,0,0,0-2.7,0,2.29,2.29,0,0,0-.81,1.06,4.18,4.18,0,0,0-.27,1.56,3.64,3.64,0,0,0,.63,2.18,2.13,2.13,0,0,0,1.83.82,2.43,2.43,0,0,0,1.32-.35,2.24,2.24,0,0,0,.82-1l1,.3a3.24,3.24,0,0,1-1.23,1.54A3.5,3.5,0,0,1,240.78,167.52Z"/><path class="cls-3" d="M244.56,160.63v-.88h4.95v.88Zm4.95,6.68a4.84,4.84,0,0,1-1.25.1,2.59,2.59,0,0,1-1.11-.26,1.61,1.61,0,0,1-.74-.74,2.06,2.06,0,0,1-.22-.85c0-.29,0-.62,0-1v-6.92h1v6.88c0,.32,0,.58,0,.79a1.3,1.3,0,0,0,.15.57,1.05,1.05,0,0,0,.8.56,4.56,4.56,0,0,0,1.36,0Z"/><path class="cls-3" d="M251.14,158.31v-1.15h1v1.15Zm0,9v-7.56h1v7.56Z"/><path class="cls-3" d="M257.43,167.52a3.54,3.54,0,0,1-1.93-.51,3.26,3.26,0,0,1-1.22-1.42,5.17,5.17,0,0,1,0-4.15,3.23,3.23,0,0,1,1.23-1.4,3.58,3.58,0,0,1,1.91-.5,3.52,3.52,0,0,1,1.93.51,3.17,3.17,0,0,1,1.23,1.4,5.36,5.36,0,0,1,0,4.16,3.34,3.34,0,0,1-1.24,1.41A3.56,3.56,0,0,1,257.43,167.52Zm0-1a2.18,2.18,0,0,0,1.87-.83,4.14,4.14,0,0,0,0-4.36,2.21,2.21,0,0,0-1.87-.81,2.36,2.36,0,0,0-1.4.38,2.28,2.28,0,0,0-.82,1.05,4.22,4.22,0,0,0-.27,1.56,3.52,3.52,0,0,0,.63,2.19A2.19,2.19,0,0,0,257.43,166.53Z"/><path class="cls-3" d="M262.54,167.31v-7.56h.94v1.86h.1v5.7Zm5.47,0v-3.86a5.3,5.3,0,0,0-.12-1.16,2.63,2.63,0,0,0-.38-.92,1.74,1.74,0,0,0-.68-.61,2.09,2.09,0,0,0-1-.22,2.25,2.25,0,0,0-1,.19,1.86,1.86,0,0,0-.7.54,2.48,2.48,0,0,0-.43.86,4,4,0,0,0-.15,1.15l-.73-.16a4.28,4.28,0,0,1,.41-2,2.81,2.81,0,0,1,1.12-1.19,3.25,3.25,0,0,1,1.64-.41,3.07,3.07,0,0,1,1.18.21,2.49,2.49,0,0,1,.86.57,3.08,3.08,0,0,1,.58.81,4.48,4.48,0,0,1,.31,1,5,5,0,0,1,.1,1v4.16Z"/><path class="cls-3" d="M271.06,167.31v-1.2h1.2v1.2Z"/><path class="cls-3" d="M275.49,170.67l1.47-4,0,1.18-3.31-8.13h1.09l2.72,6.8H277l2.5-6.8h1.05l-4.06,10.92Z"/><path class="cls-3" d="M281.79,167.31v-7.56h.93v1.86h.11v5.7Zm4.53,0v-4.89a2,2,0,0,0-.48-1.43,1.62,1.62,0,0,0-1.26-.52,1.64,1.64,0,0,0-1.27.54,2,2,0,0,0-.48,1.42l-.62-.34a2.48,2.48,0,0,1,.35-1.3,2.42,2.42,0,0,1,.94-.91,2.7,2.7,0,0,1,1.35-.33,2.66,2.66,0,0,1,1.28.3,2.27,2.27,0,0,1,.89.9,3,3,0,0,1,.32,1.43v5.13Zm4.5,0v-5a1.9,1.9,0,0,0-.48-1.38,1.68,1.68,0,0,0-1.24-.5,1.91,1.91,0,0,0-.83.2,1.61,1.61,0,0,0-.67.63,2.2,2.2,0,0,0-.26,1.13l-.61-.18a2.73,2.73,0,0,1,.32-1.42,2.36,2.36,0,0,1,.94-.94,2.66,2.66,0,0,1,1.35-.34,2.44,2.44,0,0,1,1.83.7,2.59,2.59,0,0,1,.68,1.9v5.16Z"/><path class="cls-3" d="M293.81,167.31V157h1v10.29Z"/><path class="cls-3" d="M202.38,187.12a3.9,3.9,0,0,1-2.19-.57,2.39,2.39,0,0,1-1.05-1.6l1.05-.17a1.66,1.66,0,0,0,.77,1,2.63,2.63,0,0,0,1.48.38,2.25,2.25,0,0,0,1.35-.36,1.12,1.12,0,0,0,.5-1,.94.94,0,0,0-.16-.57,1.35,1.35,0,0,0-.64-.41,12.93,12.93,0,0,0-1.44-.45,9.14,9.14,0,0,1-1.61-.56,1.87,1.87,0,0,1-.82-.65,1.51,1.51,0,0,1-.25-.89,1.89,1.89,0,0,1,.36-1.14,2.44,2.44,0,0,1,1-.75,3.86,3.86,0,0,1,1.5-.27,3.9,3.9,0,0,1,1.53.28,2.73,2.73,0,0,1,1.09.77,2.2,2.2,0,0,1,.49,1.15l-1,.19a1.53,1.53,0,0,0-.66-1,2.47,2.47,0,0,0-1.41-.4,2.18,2.18,0,0,0-1.31.3,1,1,0,0,0-.51.87.72.72,0,0,0,.19.51,1.63,1.63,0,0,0,.66.4,10.66,10.66,0,0,0,1.37.42,7.78,7.78,0,0,1,1.63.56,2,2,0,0,1,.85.69,1.77,1.77,0,0,1,.25,1,2,2,0,0,1-.79,1.68A3.5,3.5,0,0,1,202.38,187.12Z"/><path class="cls-3" d="M206.07,180.24v-.88h5v.88Zm5,6.68a4.84,4.84,0,0,1-1.25.1,2.67,2.67,0,0,1-1.11-.26,1.66,1.66,0,0,1-.74-.74,2.43,2.43,0,0,1-.22-.85c0-.29,0-.62,0-1v-6.92h1v6.88c0,.32,0,.58,0,.79a1.3,1.3,0,0,0,.14.57,1.07,1.07,0,0,0,.8.56,4.56,4.56,0,0,0,1.36,0Z"/><path class="cls-3" d="M214.68,187.13a2.94,2.94,0,0,1-1.43-.31,2,2,0,0,1-.87-.82,2.23,2.23,0,0,1-.28-1.11,2,2,0,0,1,.25-1,1.93,1.93,0,0,1,.67-.72,3.36,3.36,0,0,1,1-.43c.38-.09.81-.18,1.27-.25l1.37-.19,1.17-.15-.36.22a2.5,2.5,0,0,0-.44-1.66,2,2,0,0,0-1.58-.54,2.35,2.35,0,0,0-1.31.35,1.91,1.91,0,0,0-.76,1.11l-1-.3a2.68,2.68,0,0,1,1.05-1.57,3.43,3.43,0,0,1,2-.56,3.66,3.66,0,0,1,1.76.39,2.16,2.16,0,0,1,1,1.12,2.77,2.77,0,0,1,.18.74,7.38,7.38,0,0,1,0,.82v4.7h-.91V185l.26.11a3,3,0,0,1-1.19,1.49A3.61,3.61,0,0,1,214.68,187.13Zm.12-.89a2.92,2.92,0,0,0,1.26-.26,2.26,2.26,0,0,0,.87-.71,2.31,2.31,0,0,0,.42-1,3.32,3.32,0,0,0,.09-.8c0-.29,0-.51,0-.65l.39.2-1.13.14-1.21.16a8.55,8.55,0,0,0-1.06.22,2.85,2.85,0,0,0-.63.25,1.48,1.48,0,0,0-.49.44,1.14,1.14,0,0,0-.19.68,1.35,1.35,0,0,0,.16.64,1.37,1.37,0,0,0,.53.51A2.1,2.1,0,0,0,214.8,186.24Z"/><path class="cls-3" d="M223.23,187.13a3.07,3.07,0,0,1-1.81-.53,3.4,3.4,0,0,1-1.15-1.43,5.08,5.08,0,0,1-.4-2,4.9,4.9,0,0,1,.4-2,3.31,3.31,0,0,1,1.14-1.43,3,3,0,0,1,1.77-.52,3,3,0,0,1,1.8.52,3.19,3.19,0,0,1,1.1,1.41,5.84,5.84,0,0,1,0,4.09A3.28,3.28,0,0,1,225,186.6,2.92,2.92,0,0,1,223.23,187.13Zm.07,3.36a4.11,4.11,0,0,1-1.15-.17,3.56,3.56,0,0,1-1-.54,3.16,3.16,0,0,1-.8-1l.93-.51a1.9,1.9,0,0,0,.89.9,2.58,2.58,0,0,0,1.17.28,2.48,2.48,0,0,0,1.32-.31,1.7,1.7,0,0,0,.74-.9,4,4,0,0,0,.23-1.48v-2h.11v-5.42h.92v7.45c0,.22,0,.42,0,.62a5.61,5.61,0,0,1-.06.59,3,3,0,0,1-.55,1.39,2.47,2.47,0,0,1-1.09.81A4.36,4.36,0,0,1,223.3,190.49Zm0-4.32a2.16,2.16,0,0,0,1.33-.39,2.3,2.3,0,0,0,.78-1.08,4.87,4.87,0,0,0,0-3.14,2.32,2.32,0,0,0-.78-1.07,2.16,2.16,0,0,0-1.31-.38,2.13,2.13,0,0,0-1.34.4,2.25,2.25,0,0,0-.79,1.08,4.4,4.4,0,0,0-.25,1.54,4.2,4.2,0,0,0,.26,1.55,2.33,2.33,0,0,0,.79,1.09A2,2,0,0,0,223.33,186.17Z"/><path class="cls-3" d="M228.72,177.92v-1.15h1v1.15Zm0,9v-7.56h1v7.56Z"/><path class="cls-3" d="M231.84,186.92v-7.56h.93v1.86h.11v5.7Zm5.47,0v-3.86a5.3,5.3,0,0,0-.12-1.16,2.83,2.83,0,0,0-.38-.92,1.74,1.74,0,0,0-.68-.61,2.09,2.09,0,0,0-1-.22,2.25,2.25,0,0,0-1,.19,1.86,1.86,0,0,0-.7.54,2.32,2.32,0,0,0-.43.86,4,4,0,0,0-.15,1.15l-.73-.16a4.28,4.28,0,0,1,.41-2,2.81,2.81,0,0,1,1.12-1.19,3.25,3.25,0,0,1,1.64-.41,3.07,3.07,0,0,1,1.18.21,2.49,2.49,0,0,1,.86.57,2.83,2.83,0,0,1,.57.81,4,4,0,0,1,.32,1,5.87,5.87,0,0,1,.1,1v4.16Z"/><path class="cls-3" d="M243.1,187.13a3.07,3.07,0,0,1-1.81-.53,3.31,3.31,0,0,1-1.14-1.43,4.92,4.92,0,0,1-.4-2,5.07,5.07,0,0,1,.39-2,3.31,3.31,0,0,1,1.14-1.43,3.32,3.32,0,0,1,3.57,0,3.19,3.19,0,0,1,1.1,1.41,5.69,5.69,0,0,1,0,4.09,3.21,3.21,0,0,1-1.09,1.43A2.92,2.92,0,0,1,243.1,187.13Zm.07,3.36a4.11,4.11,0,0,1-1.15-.17,3.56,3.56,0,0,1-1-.54,3.13,3.13,0,0,1-.79-1l.93-.51a1.88,1.88,0,0,0,.88.9,2.58,2.58,0,0,0,1.17.28,2.49,2.49,0,0,0,1.33-.31,1.73,1.73,0,0,0,.73-.9,4,4,0,0,0,.23-1.48v-2h.12v-5.42h.91v7.45c0,.22,0,.42,0,.62s0,.4-.07.59a3,3,0,0,1-.55,1.39,2.47,2.47,0,0,1-1.09.81A4.32,4.32,0,0,1,243.17,190.49Zm0-4.32a2.16,2.16,0,0,0,1.33-.39,2.31,2.31,0,0,0,.79-1.08,4.87,4.87,0,0,0,0-3.14,2.32,2.32,0,0,0-.78-1.07,2.21,2.21,0,0,0-1.31-.38,2.16,2.16,0,0,0-1.35.4,2.31,2.31,0,0,0-.79,1.08,4.81,4.81,0,0,0,0,3.09,2.47,2.47,0,0,0,.79,1.09A2.08,2.08,0,0,0,243.2,186.17Z"/><path class="cls-3" d="M248.65,186.92v-1.2h1.2v1.2Z"/><path class="cls-3" d="M253.08,190.28l1.46-4,0,1.18-3.31-8.13h1.1l2.71,6.8h-.45l2.51-6.8h1.05l-4.06,10.92Z"/><path class="cls-3" d="M259.38,186.92v-7.56h.93v1.86h.11v5.7Zm4.52,0V182a2,2,0,0,0-.48-1.43,1.77,1.77,0,0,0-2.53,0,2,2,0,0,0-.48,1.42l-.62-.34a2.46,2.46,0,0,1,1.28-2.21,2.92,2.92,0,0,1,2.64,0,2.24,2.24,0,0,1,.88.9,2.88,2.88,0,0,1,.32,1.43v5.13Zm4.5,0v-5a1.86,1.86,0,0,0-.49-1.38,1.64,1.64,0,0,0-1.23-.5,1.88,1.88,0,0,0-.83.2,1.56,1.56,0,0,0-.67.63,2.1,2.1,0,0,0-.27,1.13l-.6-.18a2.73,2.73,0,0,1,.31-1.42,2.43,2.43,0,0,1,.94-.94,2.67,2.67,0,0,1,1.36-.34,2.4,2.4,0,0,1,1.82.7,2.59,2.59,0,0,1,.69,1.9v5.16Z"/><path class="cls-3" d="M271.4,186.92V176.63h1v10.29Z"/><path class="cls-3" d="M202.49,206.74a3.06,3.06,0,0,1-1.8-.53,3.33,3.33,0,0,1-1.15-1.43,4.92,4.92,0,0,1-.4-2,5.07,5.07,0,0,1,.39-2,3.46,3.46,0,0,1,1.14-1.43,3,3,0,0,1,1.78-.52,3,3,0,0,1,1.79.52,3.14,3.14,0,0,1,1.11,1.41,5.51,5.51,0,0,1,.37,2.05,5.33,5.33,0,0,1-.37,2,3.28,3.28,0,0,1-1.09,1.43A2.93,2.93,0,0,1,202.49,206.74Zm.11-1a2.18,2.18,0,0,0,1.33-.39,2.3,2.3,0,0,0,.78-1.08,4.87,4.87,0,0,0,0-3.14,2.32,2.32,0,0,0-.78-1.07,2.46,2.46,0,0,0-2.66,0,2.3,2.3,0,0,0-.78,1.08,4.72,4.72,0,0,0,0,3.09,2.47,2.47,0,0,0,.79,1.09A2.09,2.09,0,0,0,202.6,205.78Zm2.37.75v-5.69h-.11v-4.39h1v10.08Z"/><path class="cls-3" d="M211.05,206.74a3.6,3.6,0,0,1-1.91-.49,3.37,3.37,0,0,1-1.26-1.38,4.57,4.57,0,0,1-.45-2.09,4.76,4.76,0,0,1,.45-2.14,3.23,3.23,0,0,1,1.24-1.39,3.5,3.5,0,0,1,1.89-.49,3.42,3.42,0,0,1,1.91.51,3.22,3.22,0,0,1,1.2,1.48,5.54,5.54,0,0,1,.37,2.29h-1.05v-.37a3.62,3.62,0,0,0-.63-2.22,2.16,2.16,0,0,0-1.77-.75,2.32,2.32,0,0,0-1.87.79,3.5,3.5,0,0,0-.64,2.26,3.38,3.38,0,0,0,.64,2.21,2.25,2.25,0,0,0,1.84.79,2.66,2.66,0,0,0,1.42-.37,2.58,2.58,0,0,0,.95-1.08l1,.37A3.52,3.52,0,0,1,213,206.2,3.64,3.64,0,0,1,211.05,206.74Zm-2.89-3.7v-.87h5.78V203Z"/><path class="cls-3" d="M217.8,206.53,215.06,199h1l2.23,6.21,2.22-6.21h1.06l-2.74,7.56Z"/><path class="cls-3" d="M225.79,206.74a3.61,3.61,0,0,1-1.92-.49,3.41,3.41,0,0,1-1.25-1.38,4.57,4.57,0,0,1-.45-2.09,4.89,4.89,0,0,1,.44-2.14,3.29,3.29,0,0,1,1.24-1.39,3.56,3.56,0,0,1,1.9-.49,3.47,3.47,0,0,1,1.91.51,3.2,3.2,0,0,1,1.19,1.48,5.37,5.37,0,0,1,.38,2.29h-1v-.37a3.56,3.56,0,0,0-.64-2.22,2.13,2.13,0,0,0-1.77-.75,2.28,2.28,0,0,0-1.86.79,3.5,3.5,0,0,0-.65,2.26,3.39,3.39,0,0,0,.65,2.21,2.23,2.23,0,0,0,1.84.79,2.6,2.6,0,0,0,1.41-.37,2.53,2.53,0,0,0,1-1.08l1,.37a3.52,3.52,0,0,1-1.32,1.53A3.67,3.67,0,0,1,225.79,206.74ZM222.9,203v-.87h5.77V203Z"/><path class="cls-3" d="M230.91,206.53V196.24h1v10.29Z"/><path class="cls-3" d="M237.2,206.74a3.54,3.54,0,0,1-1.93-.51,3.26,3.26,0,0,1-1.22-1.42,5.17,5.17,0,0,1,0-4.15,3.23,3.23,0,0,1,1.23-1.4,3.55,3.55,0,0,1,1.91-.5,3.52,3.52,0,0,1,1.93.51,3.17,3.17,0,0,1,1.23,1.4,4.84,4.84,0,0,1,.42,2.07,4.73,4.73,0,0,1-.43,2.09,3.17,3.17,0,0,1-1.23,1.4A3.5,3.5,0,0,1,237.2,206.74Zm0-1a2.18,2.18,0,0,0,1.87-.83,3.61,3.61,0,0,0,.62-2.18,3.53,3.53,0,0,0-.62-2.18,2.21,2.21,0,0,0-1.87-.81,2.36,2.36,0,0,0-1.4.38,2.28,2.28,0,0,0-.82,1.05,4.18,4.18,0,0,0-.27,1.56,3.52,3.52,0,0,0,.63,2.19A2.19,2.19,0,0,0,237.2,205.75Z"/><path class="cls-3" d="M242.31,209.89V199h.93v5.69h.11v5.23Zm3.41-3.15a2.93,2.93,0,0,1-1.77-.53,3.28,3.28,0,0,1-1.09-1.43,5.84,5.84,0,0,1,0-4.09,3.14,3.14,0,0,1,1.11-1.41,3,3,0,0,1,1.79-.52,3,3,0,0,1,1.78.52,3.36,3.36,0,0,1,1.13,1.43,5.38,5.38,0,0,1,0,4.07,3.33,3.33,0,0,1-1.15,1.43A3.06,3.06,0,0,1,245.72,206.74Zm-.11-1a2.09,2.09,0,0,0,1.32-.4,2.47,2.47,0,0,0,.79-1.09,4.72,4.72,0,0,0,0-3.09,2.31,2.31,0,0,0-.79-1.08,2.13,2.13,0,0,0-1.34-.4,2.18,2.18,0,0,0-1.31.38,2.32,2.32,0,0,0-.78,1.07,4.87,4.87,0,0,0,0,3.14,2.3,2.3,0,0,0,.78,1.08A2.18,2.18,0,0,0,245.61,205.78Z"/><path class="cls-3" d="M250.6,206.53V199h.93v1.86h.11v5.7Zm4.53,0v-4.89a2,2,0,0,0-.48-1.43,1.77,1.77,0,0,0-2.53,0,2,2,0,0,0-.48,1.42l-.62-.34a2.51,2.51,0,0,1,1.28-2.21,2.77,2.77,0,0,1,1.36-.33,2.69,2.69,0,0,1,1.28.3,2.27,2.27,0,0,1,.89.9,3,3,0,0,1,.32,1.43v5.13Zm4.5,0v-5a1.9,1.9,0,0,0-.48-1.38,1.68,1.68,0,0,0-1.24-.5,1.91,1.91,0,0,0-.83.2,1.56,1.56,0,0,0-.67.63,2.1,2.1,0,0,0-.26,1.13l-.61-.18a2.64,2.64,0,0,1,.32-1.42,2.4,2.4,0,0,1,.93-.94,2.69,2.69,0,0,1,1.36-.34,2.44,2.44,0,0,1,1.83.7,2.63,2.63,0,0,1,.68,1.9v5.16Z"/><path class="cls-3" d="M265.63,206.74a3.6,3.6,0,0,1-1.91-.49,3.37,3.37,0,0,1-1.26-1.38,4.57,4.57,0,0,1-.45-2.09,4.89,4.89,0,0,1,.44-2.14,3.31,3.31,0,0,1,1.25-1.39,3.5,3.5,0,0,1,1.89-.49,3.45,3.45,0,0,1,1.91.51,3.22,3.22,0,0,1,1.2,1.48,5.54,5.54,0,0,1,.37,2.29H268v-.37a3.62,3.62,0,0,0-.63-2.22,2.16,2.16,0,0,0-1.77-.75,2.32,2.32,0,0,0-1.87.79,3.5,3.5,0,0,0-.64,2.26,3.38,3.38,0,0,0,.64,2.21,2.25,2.25,0,0,0,1.84.79,2.66,2.66,0,0,0,1.42-.37,2.58,2.58,0,0,0,.95-1.08l1,.37a3.52,3.52,0,0,1-1.32,1.53A3.67,3.67,0,0,1,265.63,206.74Zm-2.89-3.7v-.87h5.78V203Z"/><path class="cls-3" d="M270.4,206.53V199h.93v1.86h.11v5.7Zm5.47,0v-3.86a5.3,5.3,0,0,0-.12-1.16,2.83,2.83,0,0,0-.38-.92,1.89,1.89,0,0,0-.68-.61,2.12,2.12,0,0,0-1-.22,2.27,2.27,0,0,0-1,.19,1.94,1.94,0,0,0-.7.54,2.48,2.48,0,0,0-.43.86,4,4,0,0,0-.14,1.15l-.73-.16a4.28,4.28,0,0,1,.4-2,2.87,2.87,0,0,1,1.12-1.19,3.3,3.3,0,0,1,1.64-.41,3.12,3.12,0,0,1,1.19.21,2.59,2.59,0,0,1,.86.57,3.11,3.11,0,0,1,.57.81,4,4,0,0,1,.31,1,5,5,0,0,1,.1,1v4.16Z"/><path class="cls-3" d="M277.88,199.85V199h5v.88Zm5,6.68a5,5,0,0,1-1.26.1,2.58,2.58,0,0,1-1.1-.26,1.56,1.56,0,0,1-.74-.74,2.06,2.06,0,0,1-.22-.85c0-.29,0-.62,0-1v-6.92h1v6.88c0,.32,0,.58,0,.79a1.45,1.45,0,0,0,.14.57,1.07,1.07,0,0,0,.81.56,4.56,4.56,0,0,0,1.36,0Z"/><path class="cls-3" d="M284.52,206.53v-1.2h1.2v1.2Z"/><path class="cls-3" d="M289,209.89l1.46-4,0,1.18L287.13,199h1.09l2.72,6.8h-.45L293,199h1.06L290,209.89Z"/><path class="cls-3" d="M295.26,206.53V199h.92v1.86h.11v5.7Zm4.52,0v-4.89a2.07,2.07,0,0,0-.47-1.43,1.79,1.79,0,0,0-2.54,0,2,2,0,0,0-.48,1.42l-.61-.34A2.47,2.47,0,0,1,296,200a2.42,2.42,0,0,1,.94-.91,2.7,2.7,0,0,1,1.35-.33,2.66,2.66,0,0,1,1.28.3,2.27,2.27,0,0,1,.89.9,3,3,0,0,1,.32,1.43v5.13Zm4.5,0v-5a1.9,1.9,0,0,0-.49-1.38,1.67,1.67,0,0,0-1.24-.5,1.91,1.91,0,0,0-.83.2,1.61,1.61,0,0,0-.67.63,2.2,2.2,0,0,0-.26,1.13l-.61-.18a2.73,2.73,0,0,1,.32-1.42,2.43,2.43,0,0,1,.94-.94,2.66,2.66,0,0,1,1.35-.34,2.44,2.44,0,0,1,1.83.7,2.59,2.59,0,0,1,.68,1.9v5.16Z"/><path class="cls-3" d="M307.27,206.53V196.24h1v10.29Z"/><path class="cls-3" d="M189.56,224.14v-7.56h.92v1.82l-.18-.24a3.34,3.34,0,0,1,.33-.62,2.16,2.16,0,0,1,.44-.46,2,2,0,0,1,.69-.4,3.08,3.08,0,0,1,.79-.16,2.14,2.14,0,0,1,.73.06v1a2.49,2.49,0,0,0-.91,0,1.64,1.64,0,0,0-.9.39,1.92,1.92,0,0,0-.57.7,3.12,3.12,0,0,0-.25.87,7,7,0,0,0-.06.91v3.77Z"/><path class="cls-3" d="M197.62,224.35a3.48,3.48,0,0,1-1.92-.51,3.26,3.26,0,0,1-1.22-1.42,5.22,5.22,0,0,1,0-4.15,3.25,3.25,0,0,1,1.24-1.4,3.9,3.9,0,0,1,3.84,0,3.3,3.3,0,0,1,1.23,1.4,4.84,4.84,0,0,1,.42,2.07,4.73,4.73,0,0,1-.43,2.09,3.17,3.17,0,0,1-1.23,1.4A3.54,3.54,0,0,1,197.62,224.35Zm0-1a2.2,2.2,0,0,0,1.88-.83,3.61,3.61,0,0,0,.62-2.18,3.53,3.53,0,0,0-.62-2.18,2.23,2.23,0,0,0-1.88-.81,2.33,2.33,0,0,0-1.39.38,2.22,2.22,0,0,0-.82,1,4.18,4.18,0,0,0-.27,1.56,3.52,3.52,0,0,0,.63,2.19A2.18,2.18,0,0,0,197.62,223.36Z"/><path class="cls-3" d="M202.89,224.14V213.85h1v10.29Z"/><path class="cls-3" d="M209.22,224.35a3.61,3.61,0,0,1-1.92-.49,3.28,3.28,0,0,1-1.25-1.38,4.57,4.57,0,0,1-.45-2.09,4.76,4.76,0,0,1,.44-2.14,3.29,3.29,0,0,1,1.24-1.39,3.53,3.53,0,0,1,1.89-.49,3.48,3.48,0,0,1,1.92.51,3.26,3.26,0,0,1,1.19,1.48,5.38,5.38,0,0,1,.37,2.29H211.6v-.37a3.62,3.62,0,0,0-.63-2.22,2.13,2.13,0,0,0-1.77-.75,2.28,2.28,0,0,0-1.86.79,3.5,3.5,0,0,0-.65,2.26,3.39,3.39,0,0,0,.65,2.21,2.22,2.22,0,0,0,1.83.79,2.51,2.51,0,0,0,2.38-1.45l1,.37a3.52,3.52,0,0,1-1.32,1.53A3.67,3.67,0,0,1,209.22,224.35Zm-2.89-3.7v-.87h5.77v.87Z"/><path class="cls-3" d="M217,224.34a3.9,3.9,0,0,1-2.19-.57,2.39,2.39,0,0,1-1.05-1.6l1.05-.17a1.66,1.66,0,0,0,.77,1,2.65,2.65,0,0,0,1.48.38,2.31,2.31,0,0,0,1.36-.36,1.14,1.14,0,0,0,.49-1,.94.94,0,0,0-.16-.57,1.35,1.35,0,0,0-.64-.41,12.93,12.93,0,0,0-1.44-.45,9.14,9.14,0,0,1-1.61-.56,1.87,1.87,0,0,1-.82-.65,1.52,1.52,0,0,1-.25-.9,1.82,1.82,0,0,1,.37-1.13,2.34,2.34,0,0,1,1-.75,3.86,3.86,0,0,1,1.5-.27,3.9,3.9,0,0,1,1.53.28,2.73,2.73,0,0,1,1.09.77,2.2,2.2,0,0,1,.49,1.15l-1.05.19a1.53,1.53,0,0,0-.66-1,2.47,2.47,0,0,0-1.41-.4,2.18,2.18,0,0,0-1.31.3,1,1,0,0,0-.51.87.72.72,0,0,0,.19.51,1.63,1.63,0,0,0,.66.4,10.66,10.66,0,0,0,1.37.42,7.78,7.78,0,0,1,1.63.56,2,2,0,0,1,.85.69,1.77,1.77,0,0,1,.25,1,2,2,0,0,1-.79,1.68A3.5,3.5,0,0,1,217,224.34Z"/><path class="cls-3" d="M225.15,214.06l-2.68,10.08h-1.06l2.69-10.08Z"/><path class="cls-3" d="M189.55,241.75v-7.56h.93v1.86h.11v5.7Zm4.53,0v-4.89a2,2,0,0,0-.48-1.43,1.62,1.62,0,0,0-1.26-.52,1.67,1.67,0,0,0-1.27.53,2.08,2.08,0,0,0-.48,1.43l-.62-.34a2.51,2.51,0,0,1,1.28-2.21,2.77,2.77,0,0,1,1.36-.33,2.69,2.69,0,0,1,1.28.3,2.27,2.27,0,0,1,.89.9,3,3,0,0,1,.32,1.43v5.13Zm4.5,0v-5a1.9,1.9,0,0,0-.48-1.38,1.68,1.68,0,0,0-1.24-.5,1.91,1.91,0,0,0-.83.2,1.56,1.56,0,0,0-.67.63,2.17,2.17,0,0,0-.26,1.13l-.61-.18a2.64,2.64,0,0,1,.32-1.42,2.4,2.4,0,0,1,.93-.94,2.69,2.69,0,0,1,1.36-.34,2.44,2.44,0,0,1,1.83.7,2.63,2.63,0,0,1,.68,1.9v5.16Z"/><path class="cls-3" d="M203.6,242a3,3,0,0,1-1.44-.31,2.07,2.07,0,0,1-.86-.82,2.24,2.24,0,0,1-.29-1.11,2.15,2.15,0,0,1,.25-1.05,2,2,0,0,1,.68-.72,3.36,3.36,0,0,1,1-.43c.38-.09.8-.18,1.27-.25l1.36-.19,1.18-.15-.37.22a2.44,2.44,0,0,0-.43-1.66,2,2,0,0,0-1.58-.54,2.4,2.4,0,0,0-1.32.35,1.89,1.89,0,0,0-.75,1.11l-1-.3a2.67,2.67,0,0,1,1-1.57,3.44,3.44,0,0,1,2-.56,3.66,3.66,0,0,1,1.76.39,2.2,2.2,0,0,1,1,1.12,2.77,2.77,0,0,1,.18.74,7.38,7.38,0,0,1,0,.82v4.7h-.92v-1.9l.27.11a3,3,0,0,1-1.2,1.49A3.57,3.57,0,0,1,203.6,242Zm.11-.89a3,3,0,0,0,1.27-.26,2.3,2.3,0,0,0,.86-.71,2.44,2.44,0,0,0,.43-1,3.32,3.32,0,0,0,.09-.8c0-.29,0-.51,0-.65l.39.2-1.14.14-1.2.16a8.73,8.73,0,0,0-1.07.22,3,3,0,0,0-.62.25,1.52,1.52,0,0,0-.5.44,1.21,1.21,0,0,0-.19.68,1.36,1.36,0,0,0,.17.64,1.31,1.31,0,0,0,.53.51A2.06,2.06,0,0,0,203.71,241.07Z"/><path class="cls-3" d="M209.35,232.75V231.6h1v1.15Zm0,9v-7.56h1v7.56Z"/><path class="cls-3" d="M212.47,241.75v-7.56h.93v1.86h.11v5.7Zm5.47,0v-3.86a5.3,5.3,0,0,0-.12-1.16,2.83,2.83,0,0,0-.38-.92,1.81,1.81,0,0,0-.68-.61,2.12,2.12,0,0,0-1-.22,2.27,2.27,0,0,0-1,.19,1.83,1.83,0,0,0-.69.54,2.5,2.5,0,0,0-.44.86,4.42,4.42,0,0,0-.14,1.15l-.73-.16a4.15,4.15,0,0,1,.41-2,2.81,2.81,0,0,1,1.12-1.19,3.14,3.14,0,0,1,1.63-.41,3.09,3.09,0,0,1,1.19.21,2.49,2.49,0,0,1,.86.57,2.7,2.7,0,0,1,.57.81,4.09,4.09,0,0,1,.32,1,6.06,6.06,0,0,1,.09,1v4.16Z"/><path class="cls-3" d="M221,241.75v-1.2h1.2v1.2Z"/><path class="cls-3" d="M225.42,245.11l1.46-4,0,1.18-3.31-8.13h1.1l2.71,6.8H227l2.51-6.8h1l-4.06,10.92Z"/><path class="cls-3" d="M231.72,241.75v-7.56h.93v1.86h.11v5.7Zm4.52,0v-4.89a2,2,0,0,0-.48-1.43,1.79,1.79,0,0,0-2.53,0,2.08,2.08,0,0,0-.48,1.43l-.62-.34a2.47,2.47,0,0,1,.34-1.3,2.42,2.42,0,0,1,.94-.91,2.92,2.92,0,0,1,2.64,0,2.24,2.24,0,0,1,.88.9,2.88,2.88,0,0,1,.32,1.43v5.13Zm4.5,0v-5a1.86,1.86,0,0,0-.49-1.38,1.64,1.64,0,0,0-1.23-.5,1.88,1.88,0,0,0-.83.2,1.56,1.56,0,0,0-.67.63,2.08,2.08,0,0,0-.27,1.13l-.6-.18a2.73,2.73,0,0,1,.31-1.42,2.43,2.43,0,0,1,.94-.94,2.67,2.67,0,0,1,1.36-.34,2.4,2.4,0,0,1,1.82.7,2.59,2.59,0,0,1,.69,1.9v5.16Z"/><path class="cls-3" d="M243.74,241.75V231.46h1v10.29Z"/><path class="cls-3" d="M178.72,252.68v-.88h5v.88Zm5,6.68a5,5,0,0,1-1.26.1,2.83,2.83,0,0,1-1.11-.26,1.59,1.59,0,0,1-.73-.74,2.25,2.25,0,0,1-.23-.86c0-.28,0-.61,0-1V249.7h1v6.88c0,.32,0,.58,0,.79a1.45,1.45,0,0,0,.14.57,1.07,1.07,0,0,0,.8.56,4.62,4.62,0,0,0,1.37,0Z"/><path class="cls-3" d="M188.09,259.57a3.7,3.7,0,0,1-1.92-.49,3.28,3.28,0,0,1-1.25-1.38,4.57,4.57,0,0,1-.45-2.09,4.76,4.76,0,0,1,.44-2.14,3.29,3.29,0,0,1,1.24-1.39,3.55,3.55,0,0,1,1.89-.49,3.48,3.48,0,0,1,1.92.51,3.26,3.26,0,0,1,1.19,1.48,5.38,5.38,0,0,1,.37,2.29h-1.05v-.37a3.62,3.62,0,0,0-.63-2.22,2.13,2.13,0,0,0-1.77-.75,2.28,2.28,0,0,0-1.86.79,3.5,3.5,0,0,0-.65,2.26,3.39,3.39,0,0,0,.65,2.21,2.22,2.22,0,0,0,1.83.79,2.51,2.51,0,0,0,2.38-1.45l1,.37a3.52,3.52,0,0,1-1.32,1.53A3.67,3.67,0,0,1,188.09,259.57Zm-2.89-3.7V255H191v.87Z"/><path class="cls-3" d="M193.07,259.36V251.8H194v1.82l-.18-.24a3.34,3.34,0,0,1,.33-.62,2.16,2.16,0,0,1,.44-.46,2,2,0,0,1,.69-.4,3.08,3.08,0,0,1,.79-.16,2.14,2.14,0,0,1,.73.06v1a2.49,2.49,0,0,0-.91,0,1.64,1.64,0,0,0-.9.39,1.92,1.92,0,0,0-.57.7,3.12,3.12,0,0,0-.25.87,7,7,0,0,0-.06.91v3.77Z"/><path class="cls-3" d="M198.12,259.36V251.8H199v1.82l-.18-.24a2.46,2.46,0,0,1,.33-.62,2.59,2.59,0,0,1,1.12-.86,3.24,3.24,0,0,1,.8-.16,2.11,2.11,0,0,1,.72.06v1a2.42,2.42,0,0,0-.9,0,1.58,1.58,0,0,0-.9.39,1.92,1.92,0,0,0-.57.7,3.12,3.12,0,0,0-.25.87,7,7,0,0,0-.06.91v3.77Z"/><path class="cls-3" d="M205.05,259.57a2.94,2.94,0,0,1-1.43-.31,2,2,0,0,1-.87-.82,2.24,2.24,0,0,1-.29-1.11,2.21,2.21,0,0,1,.25-1.06,2,2,0,0,1,.68-.71,3.36,3.36,0,0,1,1-.43c.38-.09.81-.18,1.27-.25l1.36-.19,1.18-.15-.37.22a2.44,2.44,0,0,0-.43-1.66,2,2,0,0,0-1.58-.54,2.35,2.35,0,0,0-1.31.35,1.91,1.91,0,0,0-.76,1.11l-1-.3a2.67,2.67,0,0,1,1-1.57,3.42,3.42,0,0,1,2-.56,3.66,3.66,0,0,1,1.76.39,2.16,2.16,0,0,1,1,1.12,2.68,2.68,0,0,1,.18.74,7.38,7.38,0,0,1,0,.82v4.7h-.92v-1.9l.27.11a3,3,0,0,1-1.2,1.49A3.57,3.57,0,0,1,205.05,259.57Zm.12-.89a2.92,2.92,0,0,0,1.26-.26,2.15,2.15,0,0,0,.86-.71,2.32,2.32,0,0,0,.43-1,3.32,3.32,0,0,0,.09-.8c0-.29,0-.51,0-.65l.39.2-1.14.14c-.4,0-.81.1-1.2.16a9.14,9.14,0,0,0-1.07.22,3,3,0,0,0-.62.25,1.39,1.39,0,0,0-.49.44,1.14,1.14,0,0,0-.2.68,1.36,1.36,0,0,0,.17.64,1.31,1.31,0,0,0,.53.51A2.1,2.1,0,0,0,205.17,258.68Z"/><path class="cls-3" d="M210.1,252.68v-.88h4.4v.88Zm1.31,6.68v-8.12a5.49,5.49,0,0,1,0-.58,2.45,2.45,0,0,1,.13-.55,1.5,1.5,0,0,1,.31-.49,1.45,1.45,0,0,1,.5-.37,2.82,2.82,0,0,1,.57-.15l.59,0h1v.87h-.89a1.21,1.21,0,0,0-.88.28,1.27,1.27,0,0,0-.29.91v8.23Z"/><path class="cls-3" d="M218.5,259.57a3.48,3.48,0,0,1-1.92-.51,3.28,3.28,0,0,1-1.23-1.42,4.84,4.84,0,0,1-.43-2.07,4.68,4.68,0,0,1,.44-2.08,3.3,3.3,0,0,1,1.23-1.4,3.92,3.92,0,0,1,3.85,0,3.21,3.21,0,0,1,1.22,1.4,4.84,4.84,0,0,1,.43,2.07,4.9,4.9,0,0,1-.43,2.09,3.3,3.3,0,0,1-1.23,1.4A3.54,3.54,0,0,1,218.5,259.57Zm0-1a2.2,2.2,0,0,0,1.88-.83,3.61,3.61,0,0,0,.61-2.18,3.46,3.46,0,0,0-.62-2.18,2.19,2.19,0,0,0-1.87-.81,2.38,2.38,0,0,0-1.4.38,2.26,2.26,0,0,0-.81,1,4.18,4.18,0,0,0-.27,1.56,3.52,3.52,0,0,0,.63,2.19A2.18,2.18,0,0,0,218.5,258.58Z"/><path class="cls-3" d="M223.63,259.36V251.8h.92v1.82l-.18-.24a2.46,2.46,0,0,1,.33-.62,1.94,1.94,0,0,1,.44-.46,1.86,1.86,0,0,1,.68-.4,3.17,3.17,0,0,1,.79-.16,2.14,2.14,0,0,1,.73.06v1a2.42,2.42,0,0,0-.9,0,1.58,1.58,0,0,0-.9.39,1.82,1.82,0,0,0-.57.7,2.82,2.82,0,0,0-.25.87,7,7,0,0,0-.07.91v3.77Z"/><path class="cls-3" d="M228.66,259.36V251.8h.93v1.86h.11v5.7Zm4.53,0v-4.89a2,2,0,0,0-.48-1.43,1.61,1.61,0,0,0-1.26-.52,1.67,1.67,0,0,0-1.27.53,2.08,2.08,0,0,0-.48,1.43l-.62-.34a2.48,2.48,0,0,1,.35-1.3,2.42,2.42,0,0,1,.94-.91,2.7,2.7,0,0,1,1.35-.33,2.66,2.66,0,0,1,1.28.3,2.27,2.27,0,0,1,.89.9,3,3,0,0,1,.32,1.43v5.13Zm4.5,0v-5a1.9,1.9,0,0,0-.48-1.38,1.68,1.68,0,0,0-1.24-.5,1.78,1.78,0,0,0-.83.2,1.61,1.61,0,0,0-.67.63,2.17,2.17,0,0,0-.26,1.13l-.61-.18a2.73,2.73,0,0,1,.32-1.42,2.43,2.43,0,0,1,.94-.94,2.66,2.66,0,0,1,1.35-.34,2.44,2.44,0,0,1,1.83.7,2.59,2.59,0,0,1,.68,1.9v5.16Z"/><path class="cls-3" d="M244.15,249.28l-2.69,10.08H240.4l2.69-10.08Z"/><path class="cls-4" d="M182.58,264.93v45a4,4,0,0,0,4,4h0"/><line class="cls-4" x1="182.58" y1="294.34" x2="186.58" y2="294.34"/><line class="cls-4" x1="182.58" y1="274.73" x2="186.58" y2="274.73"/><path class="cls-3" d="M189.55,282.33V271.41h.93v5.69h.11v5.23Zm3.41-3.15a2.93,2.93,0,0,1-1.77-.53,3.26,3.26,0,0,1-1.09-1.44,5.25,5.25,0,0,1-.37-2,5.31,5.31,0,0,1,.37-2.05,3.14,3.14,0,0,1,1.11-1.41,3,3,0,0,1,1.79-.52,3,3,0,0,1,1.78.52,3.36,3.36,0,0,1,1.13,1.43,5.38,5.38,0,0,1,0,4.07,3.4,3.4,0,0,1-1.15,1.43A3.06,3.06,0,0,1,193,279.18Zm-.11-1a2.09,2.09,0,0,0,1.32-.4,2.38,2.38,0,0,0,.78-1.09,4.24,4.24,0,0,0,.27-1.55,4.4,4.4,0,0,0-.26-1.54,2.38,2.38,0,0,0-.79-1.08,2.13,2.13,0,0,0-1.34-.4,2.16,2.16,0,0,0-1.31.38,2.27,2.27,0,0,0-.78,1.07,4.24,4.24,0,0,0-.26,1.57,4.31,4.31,0,0,0,.26,1.57,2.3,2.3,0,0,0,.78,1.08A2.16,2.16,0,0,0,192.85,278.22Z"/><path class="cls-3" d="M197.85,279v-7.56h.92v1.82l-.18-.24a2.46,2.46,0,0,1,.33-.62,2.49,2.49,0,0,1,.44-.47,2.13,2.13,0,0,1,.69-.39,2.71,2.71,0,0,1,.79-.16,2.17,2.17,0,0,1,.73.06v1a2.71,2.71,0,0,0-.91-.05,1.7,1.7,0,0,0-.9.4,1.92,1.92,0,0,0-.57.7,3.12,3.12,0,0,0-.25.87,6.92,6.92,0,0,0-.06.9V279Z"/><path class="cls-3" d="M205.91,279.18a3.48,3.48,0,0,1-1.92-.51,3.41,3.41,0,0,1-1.23-1.42,4.84,4.84,0,0,1-.42-2.07,4.76,4.76,0,0,1,.43-2.09A3.28,3.28,0,0,1,204,271.7a3.45,3.45,0,0,1,1.9-.5,3.55,3.55,0,0,1,1.94.51,3.21,3.21,0,0,1,1.22,1.4,4.7,4.7,0,0,1,.43,2.07,4.9,4.9,0,0,1-.43,2.09,3.23,3.23,0,0,1-1.23,1.4A3.54,3.54,0,0,1,205.91,279.18Zm0-1a2.18,2.18,0,0,0,1.88-.84,4.18,4.18,0,0,0,0-4.35,2.23,2.23,0,0,0-1.88-.82,2.33,2.33,0,0,0-1.39.39,2.22,2.22,0,0,0-.82,1.05,4.18,4.18,0,0,0-.27,1.56,3.52,3.52,0,0,0,.63,2.19A2.18,2.18,0,0,0,205.91,278.19Z"/><path class="cls-3" d="M214,279.18a3.07,3.07,0,0,1-1.81-.53,3.31,3.31,0,0,1-1.14-1.43,4.92,4.92,0,0,1-.4-2,5.07,5.07,0,0,1,.39-2,3.31,3.31,0,0,1,1.14-1.43,3.32,3.32,0,0,1,3.57,0,3.19,3.19,0,0,1,1.1,1.41,5.31,5.31,0,0,1,.38,2.05,5.25,5.25,0,0,1-.38,2,3.19,3.19,0,0,1-1.09,1.44A2.92,2.92,0,0,1,214,279.18Zm.1-1a2.16,2.16,0,0,0,1.33-.39,2.31,2.31,0,0,0,.79-1.08,4.53,4.53,0,0,0,.26-1.57,4.45,4.45,0,0,0-.26-1.57,2.27,2.27,0,0,0-.78-1.07,2.21,2.21,0,0,0-1.31-.38,2.16,2.16,0,0,0-1.35.4,2.31,2.31,0,0,0-.79,1.08,4.4,4.4,0,0,0-.25,1.54,4.46,4.46,0,0,0,.26,1.55,2.47,2.47,0,0,0,.79,1.09A2.08,2.08,0,0,0,214.07,278.22Zm2.38.75v-5.69h-.11v-4.39h1V279Z"/><path class="cls-3" d="M222.22,279.16A3,3,0,0,1,221,279a2.63,2.63,0,0,1-.87-.57,3.17,3.17,0,0,1-.57-.82,3.93,3.93,0,0,1-.31-1,5,5,0,0,1-.1-1v-4.16h1v3.85a5.3,5.3,0,0,0,.12,1.16,2.76,2.76,0,0,0,.38.93,1.82,1.82,0,0,0,.68.61,2.19,2.19,0,0,0,1,.22,2.42,2.42,0,0,0,1-.19,2,2,0,0,0,.7-.54,2.53,2.53,0,0,0,.43-.87,4,4,0,0,0,.15-1.14l.73.16a4.2,4.2,0,0,1-.41,1.95,2.77,2.77,0,0,1-1.12,1.2A3.27,3.27,0,0,1,222.22,279.16Zm2.54-.19v-1.86h-.1v-5.7h1V279Z"/><path class="cls-3" d="M230.78,279.18a3.49,3.49,0,0,1-1.93-.51,3.19,3.19,0,0,1-1.2-1.41,5.16,5.16,0,0,1-.42-2.07,5,5,0,0,1,.43-2.09,3.25,3.25,0,0,1,1.21-1.4,3.89,3.89,0,0,1,3.92.06,2.78,2.78,0,0,1,1.16,1.53l-1,.32a2.16,2.16,0,0,0-.85-1.05,2.56,2.56,0,0,0-2.7,0,2.24,2.24,0,0,0-.81,1.06,4.39,4.39,0,0,0-.27,1.56,3.64,3.64,0,0,0,.63,2.18,2.13,2.13,0,0,0,1.83.82,2.43,2.43,0,0,0,1.32-.35,2.22,2.22,0,0,0,.82-1l1,.31a3.29,3.29,0,0,1-1.23,1.54A3.5,3.5,0,0,1,230.78,279.18Z"/><path class="cls-3" d="M234.56,272.29v-.88h4.95v.88Zm4.95,6.68a4.84,4.84,0,0,1-1.25.1,2.75,2.75,0,0,1-1.11-.26,1.63,1.63,0,0,1-.74-.75,2.19,2.19,0,0,1-.22-.85c0-.28,0-.61,0-1v-6.92h1v6.88c0,.32,0,.58,0,.79a1.17,1.17,0,0,0,.14.57,1.05,1.05,0,0,0,.8.56,4.28,4.28,0,0,0,1.36-.05Z"/><path class="cls-3" d="M241.14,270v-1.15h1V270Zm0,9v-7.56h1V279Z"/><path class="cls-3" d="M247.43,279.18a3.54,3.54,0,0,1-1.93-.51,3.32,3.32,0,0,1-1.22-1.42,4.7,4.7,0,0,1-.43-2.07,4.76,4.76,0,0,1,.44-2.09,3.33,3.33,0,0,1,1.23-1.39,3.9,3.9,0,0,1,3.84,0,3.17,3.17,0,0,1,1.23,1.4,4.84,4.84,0,0,1,.42,2.07,4.9,4.9,0,0,1-.42,2.09,3.25,3.25,0,0,1-1.24,1.4A3.48,3.48,0,0,1,247.43,279.18Zm0-1a2.18,2.18,0,0,0,1.88-.84,3.55,3.55,0,0,0,.61-2.17,3.46,3.46,0,0,0-.62-2.18,2.2,2.2,0,0,0-1.87-.82,2.36,2.36,0,0,0-1.4.39,2.28,2.28,0,0,0-.82,1.05,4.18,4.18,0,0,0-.27,1.56,3.52,3.52,0,0,0,.63,2.19A2.19,2.19,0,0,0,247.43,278.19Z"/><path class="cls-3" d="M252.55,279v-7.56h.93v1.86h.1V279Zm5.46,0v-3.86a5.23,5.23,0,0,0-.12-1.16,2.63,2.63,0,0,0-.38-.92,1.67,1.67,0,0,0-.68-.61,2.07,2.07,0,0,0-1-.22,2.25,2.25,0,0,0-1,.19,1.77,1.77,0,0,0-.7.54,2.48,2.48,0,0,0-.43.86,4,4,0,0,0-.15,1.15l-.73-.17a4.26,4.26,0,0,1,.41-1.95,2.83,2.83,0,0,1,1.12-1.2,3.27,3.27,0,0,1,1.64-.4,3,3,0,0,1,1.18.21,2.49,2.49,0,0,1,.86.57,2.93,2.93,0,0,1,.58.81,4.07,4.07,0,0,1,.31,1,5.21,5.21,0,0,1,.1,1V279Z"/><path class="cls-3" d="M264.47,268.89,261.79,279h-1.06l2.69-10.08Z"/><path class="cls-3" d="M192.38,298.78a3.9,3.9,0,0,1-2.19-.57,2.42,2.42,0,0,1-1.05-1.6l1.05-.17a1.66,1.66,0,0,0,.77,1,2.65,2.65,0,0,0,1.48.38,2.31,2.31,0,0,0,1.36-.36,1.15,1.15,0,0,0,.49-1,1,1,0,0,0-.15-.57,1.37,1.37,0,0,0-.65-.41,12.93,12.93,0,0,0-1.44-.45,10,10,0,0,1-1.61-.56,2,2,0,0,1-.82-.65,1.52,1.52,0,0,1-.25-.9,1.8,1.8,0,0,1,.37-1.13,2.34,2.34,0,0,1,1-.75,3.86,3.86,0,0,1,1.5-.27,4.09,4.09,0,0,1,1.53.27,2.85,2.85,0,0,1,1.09.78,2.09,2.09,0,0,1,.49,1.15l-1,.19a1.53,1.53,0,0,0-.66-1.05,2.4,2.4,0,0,0-1.41-.4,2.18,2.18,0,0,0-1.31.3,1,1,0,0,0-.51.86.77.77,0,0,0,.19.52,1.63,1.63,0,0,0,.66.4,9.46,9.46,0,0,0,1.37.41,9.14,9.14,0,0,1,1.63.56,2,2,0,0,1,.85.7,1.76,1.76,0,0,1,.25,1,2,2,0,0,1-.79,1.69A3.5,3.5,0,0,1,192.38,298.78Z"/><path class="cls-3" d="M196.07,291.9V291h5v.88Zm5,6.68a5,5,0,0,1-1.26.1,2.83,2.83,0,0,1-1.11-.26,1.56,1.56,0,0,1-.73-.75,2.2,2.2,0,0,1-.23-.85c0-.28,0-.61,0-1v-6.92h1v6.88c0,.32,0,.58,0,.79a1.3,1.3,0,0,0,.14.57,1.07,1.07,0,0,0,.8.56,4.35,4.35,0,0,0,1.37-.05Z"/><path class="cls-3" d="M204.68,298.79a2.94,2.94,0,0,1-1.43-.31,2.16,2.16,0,0,1-.87-.82,2.23,2.23,0,0,1-.28-1.11,2.1,2.1,0,0,1,.25-1.06,2,2,0,0,1,.67-.71,3.48,3.48,0,0,1,1-.43c.38-.09.81-.18,1.27-.25l1.37-.19c.44-.05.83-.1,1.17-.16l-.36.23a2.44,2.44,0,0,0-.44-1.66,2,2,0,0,0-1.58-.54,2.35,2.35,0,0,0-1.31.35,1.82,1.82,0,0,0-.75,1.11l-1-.3a2.68,2.68,0,0,1,1.05-1.57,3.36,3.36,0,0,1,2-.56,3.73,3.73,0,0,1,1.77.39,2.18,2.18,0,0,1,1,1.12,2.69,2.69,0,0,1,.18.73,7.69,7.69,0,0,1,0,.83v4.7h-.91v-1.9l.26.11a3,3,0,0,1-1.19,1.49A3.59,3.59,0,0,1,204.68,298.79Zm.12-.89a2.92,2.92,0,0,0,1.26-.26,2.26,2.26,0,0,0,.87-.71,2.31,2.31,0,0,0,.42-1,3.89,3.89,0,0,0,.1-.8v-.66l.39.21-1.13.14c-.41,0-.81.1-1.21.16a8.55,8.55,0,0,0-1.06.22,2.85,2.85,0,0,0-.63.25,1.48,1.48,0,0,0-.49.44,1.14,1.14,0,0,0-.19.68,1.28,1.28,0,0,0,.16.63,1.33,1.33,0,0,0,.53.52A2.1,2.1,0,0,0,204.8,297.9Z"/><path class="cls-3" d="M213.23,298.79a3.07,3.07,0,0,1-1.81-.53,3.4,3.4,0,0,1-1.15-1.43,5.38,5.38,0,0,1,0-4.07,3.31,3.31,0,0,1,1.14-1.43,3,3,0,0,1,1.78-.52,3,3,0,0,1,1.79.52,3.19,3.19,0,0,1,1.1,1.41,5.31,5.31,0,0,1,.37,2.05,5.25,5.25,0,0,1-.37,2,3.19,3.19,0,0,1-1.09,1.44A2.92,2.92,0,0,1,213.23,298.79Zm.07,3.36a4.11,4.11,0,0,1-1.15-.17,3.56,3.56,0,0,1-1-.54,3.31,3.31,0,0,1-.8-1l.94-.52a1.9,1.9,0,0,0,.88.91,2.72,2.72,0,0,0,1.17.28,2.58,2.58,0,0,0,1.32-.31,1.7,1.7,0,0,0,.74-.9,4,4,0,0,0,.23-1.48v-2h.11V291h.92v7.45c0,.22,0,.42,0,.62a5.61,5.61,0,0,1-.06.59,3,3,0,0,1-.55,1.39,2.55,2.55,0,0,1-1.09.81A4.32,4.32,0,0,1,213.3,302.15Zm0-4.32a2.16,2.16,0,0,0,1.33-.39,2.41,2.41,0,0,0,.79-1.09,5,5,0,0,0,0-3.13,2.41,2.41,0,0,0-.78-1.07,2.22,2.22,0,0,0-1.32-.38,2.13,2.13,0,0,0-1.34.4,2.25,2.25,0,0,0-.79,1.08,4.4,4.4,0,0,0-.25,1.54,4.24,4.24,0,0,0,.26,1.55,2.39,2.39,0,0,0,.79,1.09A2.07,2.07,0,0,0,213.33,297.83Z"/><path class="cls-3" d="M218.72,289.58v-1.15h1v1.15Zm0,9V291h1v7.56Z"/><path class="cls-3" d="M221.84,298.58V291h.94v1.86h.1v5.7Zm5.47,0v-3.86a5.23,5.23,0,0,0-.12-1.16,2.63,2.63,0,0,0-.38-.92,1.67,1.67,0,0,0-.68-.61,2.09,2.09,0,0,0-1-.22,2.25,2.25,0,0,0-1,.19,1.77,1.77,0,0,0-.7.54,2.48,2.48,0,0,0-.43.86,4,4,0,0,0-.15,1.15l-.73-.17a4.26,4.26,0,0,1,.41-1.95,2.83,2.83,0,0,1,1.12-1.2,3.24,3.24,0,0,1,1.64-.4,3.07,3.07,0,0,1,1.18.21,2.49,2.49,0,0,1,.86.57,2.93,2.93,0,0,1,.58.81,4.57,4.57,0,0,1,.31,1,6.09,6.09,0,0,1,.1,1v4.16Z"/><path class="cls-3" d="M233.1,298.79a3.09,3.09,0,0,1-1.81-.53,3.31,3.31,0,0,1-1.14-1.43,4.92,4.92,0,0,1-.4-2,5.07,5.07,0,0,1,.39-2,3.46,3.46,0,0,1,1.14-1.43,3.32,3.32,0,0,1,3.57,0,3.12,3.12,0,0,1,1.1,1.41,5.31,5.31,0,0,1,.38,2.05,5.44,5.44,0,0,1-.37,2,3.27,3.27,0,0,1-1.1,1.44A2.89,2.89,0,0,1,233.1,298.79Zm.07,3.36A4,4,0,0,1,232,302a3.32,3.32,0,0,1-1-.54,3,3,0,0,1-.8-1l.93-.52a1.9,1.9,0,0,0,.88.91,2.75,2.75,0,0,0,1.17.28,2.59,2.59,0,0,0,1.33-.31,1.73,1.73,0,0,0,.73-.9,4,4,0,0,0,.23-1.48v-2h.12V291h.91v7.45c0,.22,0,.42,0,.62a5.6,5.6,0,0,1-.07.59,3,3,0,0,1-.55,1.39,2.55,2.55,0,0,1-1.09.81A4.29,4.29,0,0,1,233.17,302.15Zm0-4.32a2.14,2.14,0,0,0,1.33-.39,2.28,2.28,0,0,0,.79-1.09,4.84,4.84,0,0,0,0-3.13,2.27,2.27,0,0,0-.78-1.07,2.46,2.46,0,0,0-2.66,0,2.38,2.38,0,0,0-.79,1.08,4.4,4.4,0,0,0-.25,1.54,4.46,4.46,0,0,0,.26,1.55,2.47,2.47,0,0,0,.79,1.09A2.08,2.08,0,0,0,233.2,297.83Z"/><path class="cls-3" d="M242.06,288.5l-2.69,10.08h-1.06L241,288.5Z"/><path class="cls-3" d="M192.49,318.4a3.06,3.06,0,0,1-1.8-.53,3.4,3.4,0,0,1-1.15-1.43,5.38,5.38,0,0,1,0-4.07,3.36,3.36,0,0,1,1.13-1.43,3,3,0,0,1,1.78-.52,3,3,0,0,1,1.79.52,3.14,3.14,0,0,1,1.11,1.41,5.81,5.81,0,0,1,0,4.08,3.26,3.26,0,0,1-1.09,1.44A2.93,2.93,0,0,1,192.49,318.4Zm.11-1a2.16,2.16,0,0,0,1.33-.39,2.33,2.33,0,0,0,.78-1.09,4.84,4.84,0,0,0,0-3.13,2.27,2.27,0,0,0-.78-1.07,2.45,2.45,0,0,0-2.65,0,2.25,2.25,0,0,0-.79,1.08,4.4,4.4,0,0,0-.26,1.54,4.46,4.46,0,0,0,.26,1.55,2.47,2.47,0,0,0,.79,1.09A2.09,2.09,0,0,0,192.6,317.44Zm2.37.75V312.5h-.11v-4.39h1v10.08Z"/><path class="cls-3" d="M201.05,318.4a3.69,3.69,0,0,1-1.91-.49,3.37,3.37,0,0,1-1.26-1.38,4.57,4.57,0,0,1-.44-2.09,4.76,4.76,0,0,1,.44-2.14,3.17,3.17,0,0,1,1.24-1.39,3.5,3.5,0,0,1,1.89-.49,3.42,3.42,0,0,1,1.91.51,3.17,3.17,0,0,1,1.2,1.48,5.33,5.33,0,0,1,.37,2.28h-1.05v-.36a3.62,3.62,0,0,0-.63-2.22,2.16,2.16,0,0,0-1.77-.75,2.28,2.28,0,0,0-1.86.79,3.44,3.44,0,0,0-.65,2.26,3.33,3.33,0,0,0,.65,2.21,2.22,2.22,0,0,0,1.83.79,2.5,2.5,0,0,0,2.38-1.46l1,.38a3.32,3.32,0,0,1-1.32,1.52A3.56,3.56,0,0,1,201.05,318.4Zm-2.89-3.71v-.86h5.78v.86Z"/><path class="cls-3" d="M207.8,318.19l-2.74-7.56h1l2.23,6.21,2.22-6.21h1.06l-2.74,7.56Z"/><path class="cls-3" d="M215.79,318.4a3.64,3.64,0,0,1-1.91-.49,3.37,3.37,0,0,1-1.26-1.38,4.57,4.57,0,0,1-.45-2.09,4.89,4.89,0,0,1,.44-2.14,3.3,3.3,0,0,1,1.24-1.39,3.56,3.56,0,0,1,1.9-.49,3.47,3.47,0,0,1,1.91.51,3.17,3.17,0,0,1,1.2,1.48,5.49,5.49,0,0,1,.37,2.28h-1v-.36a3.56,3.56,0,0,0-.64-2.22,2.12,2.12,0,0,0-1.76-.75,2.29,2.29,0,0,0-1.87.79,3.5,3.5,0,0,0-.65,2.26,3.39,3.39,0,0,0,.65,2.21,2.23,2.23,0,0,0,1.84.79,2.66,2.66,0,0,0,1.42-.37,2.55,2.55,0,0,0,1-1.09l1,.38a3.44,3.44,0,0,1-1.32,1.52A3.59,3.59,0,0,1,215.79,318.4Zm-2.89-3.71v-.86h5.77v.86Z"/><path class="cls-3" d="M220.91,318.19V307.9h1v10.29Z"/><path class="cls-3" d="M227.2,318.4a3.54,3.54,0,0,1-1.93-.51,3.32,3.32,0,0,1-1.22-1.42,4.7,4.7,0,0,1-.43-2.07,4.76,4.76,0,0,1,.44-2.09,3.33,3.33,0,0,1,1.23-1.39,3.49,3.49,0,0,1,1.91-.5,3.6,3.6,0,0,1,1.93.5,3.25,3.25,0,0,1,1.23,1.41,4.84,4.84,0,0,1,.42,2.07,4.9,4.9,0,0,1-.42,2.09,3.25,3.25,0,0,1-1.24,1.4A3.48,3.48,0,0,1,227.2,318.4Zm0-1a2.16,2.16,0,0,0,1.87-.84,3.49,3.49,0,0,0,.62-2.17,3.53,3.53,0,0,0-.62-2.18,2.19,2.19,0,0,0-1.87-.82,2.36,2.36,0,0,0-1.4.39,2.28,2.28,0,0,0-.82,1,4.18,4.18,0,0,0-.27,1.56,3.52,3.52,0,0,0,.63,2.19A2.19,2.19,0,0,0,227.2,317.41Z"/><path class="cls-3" d="M232.32,321.55V310.63h.92v5.69h.11v5.23Zm3.4-3.15a3,3,0,0,1-1.77-.53,3.26,3.26,0,0,1-1.09-1.44,5.74,5.74,0,0,1,0-4.08,3.12,3.12,0,0,1,1.1-1.41,3,3,0,0,1,1.79-.52,3,3,0,0,1,1.78.52,3.46,3.46,0,0,1,1.14,1.43,5.07,5.07,0,0,1,.39,2,5,5,0,0,1-.4,2,3.33,3.33,0,0,1-1.15,1.43A3.06,3.06,0,0,1,235.72,318.4Zm-.11-1a2.09,2.09,0,0,0,1.32-.4,2.47,2.47,0,0,0,.79-1.09,4.46,4.46,0,0,0,.26-1.55,4.4,4.4,0,0,0-.26-1.54,2.31,2.31,0,0,0-.79-1.08,2.45,2.45,0,0,0-2.65,0,2.27,2.27,0,0,0-.78,1.07,4.84,4.84,0,0,0,0,3.13,2.33,2.33,0,0,0,.78,1.09A2.18,2.18,0,0,0,235.61,317.44Z"/><path class="cls-3" d="M240.6,318.19v-7.56h.93v1.86h.11v5.7Zm4.53,0v-4.9a2,2,0,0,0-.48-1.42,1.62,1.62,0,0,0-1.26-.52,1.67,1.67,0,0,0-1.27.53,2.08,2.08,0,0,0-.48,1.43L241,313a2.48,2.48,0,0,1,.35-1.3,2.42,2.42,0,0,1,.94-.91,2.82,2.82,0,0,1,2.63,0,2.27,2.27,0,0,1,.89.9,3,3,0,0,1,.32,1.43v5.13Zm4.5,0v-5a1.89,1.89,0,0,0-.48-1.37,1.68,1.68,0,0,0-1.24-.5,1.9,1.9,0,0,0-.83.19,1.61,1.61,0,0,0-.67.63,2.24,2.24,0,0,0-.26,1.14l-.61-.18a2.64,2.64,0,0,1,.32-1.42,2.45,2.45,0,0,1,.94-.95,2.73,2.73,0,0,1,1.35-.34,2.45,2.45,0,0,1,1.83.71,2.59,2.59,0,0,1,.68,1.9v5.16Z"/><path class="cls-3" d="M255.63,318.4a3.69,3.69,0,0,1-1.91-.49,3.37,3.37,0,0,1-1.26-1.38,4.57,4.57,0,0,1-.45-2.09,4.76,4.76,0,0,1,.45-2.14,3.17,3.17,0,0,1,1.24-1.39,3.5,3.5,0,0,1,1.89-.49,3.42,3.42,0,0,1,1.91.51,3.17,3.17,0,0,1,1.2,1.48,5.49,5.49,0,0,1,.37,2.28H258v-.36a3.62,3.62,0,0,0-.63-2.22,2.16,2.16,0,0,0-1.77-.75,2.32,2.32,0,0,0-1.87.79,3.5,3.5,0,0,0-.64,2.26,3.38,3.38,0,0,0,.64,2.21,2.25,2.25,0,0,0,1.84.79A2.66,2.66,0,0,0,257,317,2.55,2.55,0,0,0,258,316l1,.38a3.38,3.38,0,0,1-1.32,1.52A3.56,3.56,0,0,1,255.63,318.4Zm-2.89-3.71v-.86h5.78v.86Z"/><path class="cls-3" d="M260.4,318.19v-7.56h.93v1.86h.11v5.7Zm5.47,0v-3.86a5.23,5.23,0,0,0-.12-1.16,2.83,2.83,0,0,0-.38-.92,1.73,1.73,0,0,0-.68-.61,2.12,2.12,0,0,0-1-.22,2.27,2.27,0,0,0-1,.19,1.84,1.84,0,0,0-.7.54,2.48,2.48,0,0,0-.43.86,4,4,0,0,0-.14,1.15l-.73-.17a4.26,4.26,0,0,1,.4-1.95,3,3,0,0,1,1.12-1.2,3.29,3.29,0,0,1,1.64-.4,3.12,3.12,0,0,1,1.19.21,2.72,2.72,0,0,1,.86.56,2.88,2.88,0,0,1,.57.82,4.09,4.09,0,0,1,.32,1,6.06,6.06,0,0,1,.09,1v4.16Z"/><path class="cls-3" d="M267.88,311.51v-.88h5v.88Zm5,6.68a4.91,4.91,0,0,1-1.26.1,2.92,2.92,0,0,1-1.1-.26,1.58,1.58,0,0,1-.74-.75,2,2,0,0,1-.22-.85c0-.28,0-.61,0-1v-6.92h1v6.88c0,.32,0,.58,0,.79a1.3,1.3,0,0,0,.15.57,1,1,0,0,0,.8.56,4.29,4.29,0,0,0,1.36-.05Z"/><path class="cls-3" d="M277.94,308.11l-2.69,10.08h-1.06l2.69-10.08Z"/><path class="cls-3" d="M179.76,335.8v-1.2H181v1.2Z"/><path class="cls-3" d="M186.31,336a3.7,3.7,0,0,1-1.92-.49,3.34,3.34,0,0,1-1.25-1.38,4.6,4.6,0,0,1-.45-2.09,4.89,4.89,0,0,1,.44-2.14,3.23,3.23,0,0,1,1.24-1.39,3.56,3.56,0,0,1,1.9-.49,3.47,3.47,0,0,1,1.91.51,3.23,3.23,0,0,1,1.19,1.47,5.4,5.4,0,0,1,.38,2.29H188.7v-.36a3.56,3.56,0,0,0-.64-2.22,2.13,2.13,0,0,0-1.77-.75,2.28,2.28,0,0,0-1.86.79,3.5,3.5,0,0,0-.65,2.26,3.39,3.39,0,0,0,.65,2.21,2.23,2.23,0,0,0,1.84.79,2.69,2.69,0,0,0,1.41-.37,2.5,2.5,0,0,0,1-1.09l1,.37a3.41,3.41,0,0,1-1.32,1.53A3.59,3.59,0,0,1,186.31,336Zm-2.89-3.71v-.86h5.77v.86Z"/><path class="cls-3" d="M191.07,335.8v-7.56H192v1.86h.1v5.7Zm5.47,0v-3.86a5.23,5.23,0,0,0-.12-1.16,2.63,2.63,0,0,0-.38-.92,1.67,1.67,0,0,0-.68-.61,2.09,2.09,0,0,0-1-.22,2.25,2.25,0,0,0-1,.19,1.77,1.77,0,0,0-.7.54,2.48,2.48,0,0,0-.43.86,3.94,3.94,0,0,0-.15,1.14l-.73-.16a4.26,4.26,0,0,1,.41-2,2.77,2.77,0,0,1,1.12-1.2,3.27,3.27,0,0,1,1.64-.4,3,3,0,0,1,1.18.21,2.61,2.61,0,0,1,.86.56,3,3,0,0,1,.58.82,4.57,4.57,0,0,1,.31,1,5.21,5.21,0,0,1,.1,1v4.16Z"/><path class="cls-3" d="M201.44,335.8l-2.74-7.56h1l2.23,6.21,2.22-6.21h1.06l-2.74,7.56Z"/></g></svg>